<?xml version="1.0" encoding="utf-8"?>
<!-- Generator: Adobe Illustrator 23.1.0, SVG Export Plug-In . SVG Version: 6.00 Build 0)  -->
<svg version="1.1" id="Lager_1" xmlns="http://www.w3.org/2000/svg" xmlns:xlink="http://www.w3.org/1999/xlink" x="0px" y="0px"
	 viewBox="0 0 282.1 96.2" style="enable-background:new 0 0 282.1 96.2;" xml:space="preserve">
<style type="text/css">
	.st0{display:none;}
	.st1{display:inline;}
	.st2{display:inline;clip-path:url(#SVGID_2_);}
	.st3{display:inline;fill:#1D1D1B;}
	.st4{fill:#1D1D1B;}
</style>
<image style="display:none;overflow:visible;" width="272" height="92" xlink:href="../google-logo.png"  transform="matrix(1 0 0 1 2.8947 0)">
</image>
<g class="st0">
	<defs>
		<rect id="SVGID_1_" x="5.1" y="19.4" width="272" height="57.4"/>
	</defs>
	<clipPath id="SVGID_2_" class="st1">
		<use xlink:href="#SVGID_1_"  style="overflow:visible;"/>
	</clipPath>
	<g class="st2">
		<defs>
			<rect id="SVGID_3_" x="5.1" y="19.4" width="272" height="57.4"/>
		</defs>
		<clipPath id="SVGID_4_">
			<use xlink:href="#SVGID_3_"  style="overflow:visible;"/>
		</clipPath>
		<g style="clip-path:url(#SVGID_4_);">
			
				<image style="overflow:visible;" width="569" height="120" xlink:href="A1531D364A6C186A.png"  transform="matrix(0.478 0 0 0.478 5.0536 19.3947)">
			</image>
		</g>
	</g>
</g>
<g class="st0">
	<path class="st3" d="M63.9,12.8c-2.5,2.3-4.8,4.3-7.2,6.4c-1.1-0.8-2.5-1.9-4-2.8C49,14.1,45,13,40.6,12.9c-5.1-0.1-9.7,1-13.9,3.7
		C20,20.9,16.1,27,15.2,34.9c-0.8,6.8,0.6,13,4.8,18.5c4,5.2,9.3,8.3,15.8,9.5c6.3,1.1,12.1,0,17.5-3.2c5.7-3.4,8.5-8.7,9.2-15.3
		H39.7V35h32.1c0.1,0.5,0.2,1,0.2,1.5c0.4,6,0.3,11.9-2.1,17.5c-4,9.4-11.1,15.2-21,17.6c-3.7,0.9-7.5,1.4-11.2,1
		c-10.6-1-19.5-5.4-26-14.1C8,53.7,5.8,48.3,4.9,42.3c-1.1-8.1,0.7-15.7,5.1-22.5C17.3,8.9,27.5,3.2,40.7,3.4c8.3,0.1,15.7,3,22,8.5
		C63,12.2,63.3,12.4,63.9,12.8"/>
	<path class="st3" d="M207.2,33.3c0-1.3-0.1-2.4,0-3.5c0-0.3,0.5-0.9,0.7-0.9c2.8-0.1,5.6,0,8.6,0v1.2c0,13.1,0,26.2,0,39.2
		c0,3.9-0.4,7.8-2,11.5c-2.9,6.8-8.2,10.5-15.4,11.6c-6.2,0.9-11.8-0.3-16.8-4.1c-3-2.3-5.1-5.3-6.7-8.7c2.9-1.2,5.7-2.3,8.3-3.4
		c1.3,1.6,2.3,3.3,3.7,4.7c4.1,3.9,11,4.3,15.5,0.8c2.6-2,3.8-4.9,4.1-8.1c0.2-1.9,0-3.9,0-5.9c-1.2,1-2.3,2-3.6,2.8
		c-4.8,2.9-9.9,2.9-15,1c-8.7-3.3-13.6-9.8-14.6-19c-1.3-11.8,8.1-24.6,21.8-24.3C200.3,28.2,204,29.8,207.2,33.3 M208,50.5
		c0.1-3.1-0.6-5.9-2.3-8.4c-4.9-7.4-14.6-6.6-19.2-0.5c-2.8,3.8-3.7,8.1-2.4,12.7c2.2,7.8,10,11.7,16.8,8.4
		C205.9,60.3,207.9,55.9,208,50.5"/>
	<path class="st3" d="M121.2,50.7c0,7.5-3,13.4-9,17.9c-2.4,1.7-5.1,2.6-7.9,3.4c-2.2,0.6-4.4,0.9-6.7,0.7c-4.3-0.3-8.4-1.5-12-4.2
		c-4.6-3.4-7.5-8-8.7-13.5c-0.6-2.8-0.6-5.6-0.1-8.6c0.8-4.4,2.6-8.1,5.6-11.3c3.7-4.1,8.4-6.3,13.9-6.9c6.6-0.6,12.7,1,17.8,5.4
		c3.8,3.2,6,7.4,6.7,12.3C120.9,47.5,121,49.1,121.2,50.7 M111.5,50.3c0.1-3.9-1.2-7.4-3.9-10c-6.5-6.2-16.3-3.9-19.8,3.7
		c-2.6,5.6-2.1,11,2,15.8c2.9,3.4,6.9,4.9,11.2,4C107.5,62.4,111.3,57.5,111.5,50.3"/>
	<path class="st3" d="M169.8,50.7c0,7.5-3,13.4-9,17.9c-2.4,1.7-5.1,2.6-7.9,3.4c-2.2,0.6-4.4,0.9-6.7,0.7c-4.3-0.3-8.4-1.5-12-4.2
		c-4.6-3.4-7.5-8-8.7-13.5c-0.6-2.8-0.6-5.6-0.1-8.6c0.8-4.4,2.6-8.1,5.6-11.3c3.7-4.1,8.4-6.3,13.9-6.9c6.6-0.6,12.7,1,17.8,5.4
		c3.8,3.2,6,7.4,6.7,12.3C169.6,47.5,169.6,49.1,169.8,50.7 M160.1,50.3c0.1-3.9-1.2-7.4-3.9-10c-6.5-6.2-16.3-3.9-19.8,3.7
		c-2.6,5.6-2.1,11,2,15.8c2.9,3.4,6.9,4.9,11.2,4C156.1,62.4,159.9,57.5,160.1,50.3"/>
	<path class="st3" d="M277.5,44.7c-10,4.1-19.9,8.3-29.9,12.4c1.5,3.3,3.9,5.6,7.2,6.4c6,1.5,10.9-0.6,14.6-5.7c2.6,1.7,5,3.3,7.6,5
		c-2.5,3.4-5.3,6-9,7.7c-1.2,0.5-2.3,1.3-3.5,1.6c-1.6,0.4-3.3,0.5-5,0.6c-6.3,0.2-11.9-1.7-16.6-6.1c-3.3-3.1-5.2-7.1-6.1-11.5
		c-1.3-6.2-0.2-12.1,3-17.4c3.1-5,7.7-8.2,13.6-9.2c7.4-1.3,13.6,0.8,18.6,6.4c1.2,1.4,2.2,3,3,4.6C276,41.1,276.7,42.8,277.5,44.7
		 M246.1,49.5c6.7-2.7,13.2-5.4,19.8-8.1c-1.7-4.2-7.8-6.5-13.4-3.4C248.3,40.3,244.6,47.1,246.1,49.5"/>
	<rect x="223" y="5.7" class="st3" width="8.9" height="65.7"/>
</g>
<g>
	<path class="st4" d="M239.8,40.6c0.8-2.3,1.5-4.6,2.3-6.8c0.4-1.2,0.9-2.4,1.4-3.5c0.3-0.6,0.6-1.2,0.9-1.7c0.5-1,1.4-1.3,2.5-1.2
		c1.3,0.1,2.5,0.5,3.5,1.1c1.3,0.7,2.1,1.8,2.2,3.3c0,0.4,0.1,0.8,0.1,1.2c0.1,3.4,0.2,6.7,0.4,10.1c0,1.2,0.2,2.3,0.4,3.5
		c0.1-0.1,0.1-0.3,0.2-0.4c0.9-5.8,2.7-11.3,4.9-16.7c0.1-0.3,0.3-0.6,0.4-0.8c0.6-0.9,1.4-1.3,2.5-1.2c2,0.2,3.8,1,5.4,2.2
		c0.8,0.6,1.2,1.5,1.1,2.5c-0.1,2.2-0.2,4.4-0.2,6.6c-0.1,3.7-0.1,7.4,0.1,11.1c0.1,1.6,0.3,3.2,0.9,4.8c0.3,0.7,0.6,1.4,1.1,1.9
		c0.8,1,2.1,1,3,0c0.4-0.5,0.8-1.2,1-1.8c0.4-1.1,0.7-2.2,1-3.4c0.1-0.5,0.3-1.1,0.5-1.6c0.2-0.5,0.5-0.8,1.1-0.7
		c0.5,0,0.8,0.3,0.9,0.8c0,0,0.1,0,0.1,0.1v2.8c0,0.1-0.1,0.2-0.1,0.3c-0.1,1.5-0.6,3-1.2,4.3c-0.5,1.2-1.1,2.2-2.1,3.1
		c-1.4,1.3-3.1,1.8-5,1.5c-2.5-0.4-4.4-1.9-5.7-4.2c-1-1.8-1.5-3.8-1.9-5.9c-0.2-0.9-0.2-1.7-0.2-2.6c-0.1-1.9-0.2-3.8-0.3-5.7
		c0-2.5,0.1-5.1,0.1-7.6c0-0.1-0.1-0.1-0.1-0.2c-0.1,0.1-0.1,0.1-0.2,0.2c-0.9,2.2-1.8,4.5-2.6,6.7c-1,3.1-1.7,6.2-2.1,9.5
		c-0.2,1.7-0.3,3.5-0.4,5.3c-0.1,1-0.3,1.5-1.4,1.8c-2.9,0.6-5.1-0.5-6-3.3c-0.5-1.5-0.8-3.1-1-4.7c-0.1-1.2-0.3-2.4-0.5-3.6
		c-0.1-1-0.1-1.9-0.2-2.9c-0.1-2.6-0.2-5.2-0.4-7.8c0-0.3-0.1-0.5-0.1-0.8c-0.5,0.2-0.7,0.5-0.9,0.9c-1.3,2.2-2.1,4.6-2.8,7
		c-0.8,2.8-1.5,5.6-1.6,8.5c-0.1,2.3-0.2,4.5-0.3,6.8c0,0.4,0,0.8-0.1,1.2c-0.2,0.9-0.5,1.2-1.4,1.3c-0.9,0.2-1.8,0.2-2.7,0.2
		c-1,0-2-0.3-2.9-0.7c-0.6-0.3-1-0.7-1-1.4c-0.1-1-0.2-2-0.2-3c0,0,0-0.1,0-0.1c0,0-0.1,0-0.1,0c0,0,0,0.1,0,0.1
		c-0.1,0.2-0.3,0.4-0.4,0.5c-0.5,0.8-1,1.7-1.6,2.4c-0.8,1.1-2,1.8-3.3,2c-3,0.5-5.4-0.6-7.2-2.9c-0.7-0.9-1.1-2-1.4-3.1
		c0-0.1-0.1-0.2-0.2-0.5c-0.3,0.5-0.5,0.8-0.8,1.2c-1.5,2.3-3.4,4-6,4.9c-1.6,0.6-3.3,0.8-5,0.3c-2.5-0.7-4.2-2.2-5.5-4.3
		c-0.1-0.2-0.2-0.4-0.4-0.7c-0.2,0.3-0.3,0.6-0.5,0.8c-0.8,1.4-1.8,2.5-3.2,3.4c-1.4,0.8-2.8,1.2-4.4,0.9c-2-0.4-3.6-1.4-4.9-2.8
		c-1.4-1.6-2.2-3.4-2.7-5.5c-0.7-3.2-0.7-6.4-0.4-9.6c0.1-0.9,0.1-1.9,0.3-2.8c0.3-1.6,0.7-3.2,1-4.8c0-0.2,0-0.4,0.1-0.8
		c-1.9-0.1-3.7,0.1-5.5,0.1c-3,8.4-7.3,16.1-13,22.7c0,1.5,0,2.9,0,4.3c0,2.8,0.2,5.7-0.1,8.5c-0.1,1.1-0.3,2.1-0.5,3.2
		c-0.2,2.2-0.8,4.2-1.8,6.2c-1.5,3-3.9,5.1-7.2,6.1c-0.3,0.1-0.6,0.2-0.8,0.3h-3.3c-0.4-0.1-0.7-0.2-1.1-0.3
		c-1.4-0.4-2.7-0.9-3.8-1.9c-1.7-1.4-2.6-3.2-2.7-5.4c-0.1-2.1,0.4-4.1,1.5-5.9c1-1.7,2.3-3.3,3.7-4.7c2.9-2.8,5.9-5.6,8.9-8.3
		c0.4-0.4,0.6-0.8,0.6-1.3c-0.1-0.7-0.1-1.5-0.1-2.3c0,0-0.1-0.1-0.1-0.1c0,0.1-0.1,0.1-0.1,0.2c-1.4,1.9-3,3.4-5.2,4.3
		c-4.1,1.7-8.2,0.4-10.7-3.3c-0.3-0.5-0.6-1-0.9-1.5c-0.1,0.2-0.2,0.4-0.4,0.6c-0.4,0.7-0.8,1.4-1.3,2c-1.7,2.1-3.9,3.1-6.6,2.7
		c-2.8-0.4-4.7-2.1-5.7-4.7c-0.2-0.6-0.3-1.2-0.5-1.8c-0.1,0.2-0.3,0.4-0.4,0.6c-1,1.7-2.2,3.2-3.9,4.3c-1.6,1.1-3.3,1.7-5.1,1.8
		c-3,0.2-5.4-1.1-7.2-3.4c-1.1-1.4-1.8-3-2.3-4.7c-0.1-0.2-0.1-0.4-0.2-0.7c-0.1,0.3-0.2,0.5-0.3,0.7c-0.8,1.9-1.8,3.6-3.1,5.2
		c-0.4,0.5-0.9,0.9-1.4,1.4c-2.9,2.5-6.3,1.7-8.3,0c-1.2-1-2-2.3-2.7-3.7c-0.6-1.4-1-2.8-1.3-4.2c-0.2-0.9-0.3-1.9-0.4-2.8
		c0-0.1,0-0.2,0-0.4c0,0-0.1,0-0.1,0c0,0.1-0.1,0.2-0.1,0.4c-1.2,2.8-2.7,5.3-4.7,7.6c-2.3,2.5-5,4.1-8.4,4.6
		c-2.1,0.4-4.2,0.3-6.3-0.1c-1.5-0.3-2.9-0.6-4.3-1.4c-1.8-1-2.1-1.8-1.3-3.6c0.4-0.9,1-1.8,1.8-2.4c0.7-0.6,1.3-0.6,2.1-0.2
		c0.4,0.2,0.8,0.5,1.2,0.8c0.6,0.4,1.2,0.9,1.8,1.2c3.4,1.7,5.3-0.6,5.6-3.1c0.1-1.4-0.1-2.6-0.7-3.8c-0.6-1.2-1.3-2.2-2.2-3.1
		c-1.4-1.3-2.8-2.6-4.2-3.9c-0.1-0.1-0.2-0.1-0.3-0.2c-0.7,1.2-1.4,2.4-2.1,3.6c-1.8,3-3.7,6.1-5.5,9.1c-1,1.6-2.2,3-3.5,4.3
		c-1,0.9-2,1.8-3.2,2.3c-1,0.5-2.1,0.7-3.2,0.5c-1.2-0.2-2-0.8-2.6-1.8c-0.6-0.9-0.8-1.8-1.1-2.8c-0.5-1.6-0.5-3.2-0.6-4.8
		c-0.2-3.7,0-7.4,0.2-11.1c0.1-2.5,0.2-5,0.3-7.6c0-0.2-0.1-0.3-0.1-0.5c-0.4,0-0.6,0.2-0.8,0.5c-0.9,1.1-1.8,2.3-2.6,3.5
		c-2.3,3.6-3.9,7.5-5.1,11.5c-1,3-1.8,6.1-2.4,9.3c-0.1,0.8-0.2,1.6-0.3,2.5c-0.1,1-0.3,1.2-1.3,1.4c-1.2,0.2-2.3,0.1-3.5-0.1
		c-0.9-0.2-1.4-0.9-1.8-1.7c-0.4-1-0.6-2.1-0.6-3.1c0-1.2-0.1-2.5-0.1-3.7c0-8.1,0.1-16.1,0.1-24.2c0-0.2,0-0.3,0-0.5
		c0-0.7,0.3-1,1-1.1c0.6,0,1.3,0,1.9,0.1c0.9,0.2,1.8,0.6,2.7,0.9c0.8,0.3,1.1,0.8,1.1,1.7c-0.1,4.7-0.1,9.4-0.1,14
		c0,0.3,0,0.6,0.1,0.9c0.1-0.2,0.2-0.3,0.2-0.5c1-2.6,1.9-5.3,3-7.9c0.9-2.2,2-4.2,3.5-6c0.8-1,1.7-1.8,2.8-2.4
		c1.2-0.6,2.4-1.1,3.7-0.7c1.7,0.4,3.2,1.3,4.5,2.5c0.8,0.7,1.2,1.6,1.1,2.7c-0.1,2.1-0.2,4.3-0.2,6.4c-0.1,4.2-0.4,8.4-0.1,12.5
		c0,0.8,0.1,1.5,0.3,2.3c0.1,0.3,0.2,0.5,0.3,0.8c0.2,0.4,0.6,0.5,1,0.3c0.4-0.2,0.8-0.4,1.1-0.7c0.7-0.7,1.3-1.5,1.8-2.3
		c2.1-3.5,4.1-6.9,6.1-10.4c0.4-0.7,0.8-1.5,1.2-2.2c-0.2-0.2-0.3-0.4-0.4-0.5c-1.6-2-2-4.2-1.1-6.6c1-2.6,2.8-4.5,5.5-5.3
		c1.2-0.4,2.5-0.2,3.7,0.1c1.1,0.3,1.8,1.5,1.7,2.9c-0.1,0.9-0.3,1.7-0.7,2.5c-0.7,1.6-1.6,3.2-2.8,4.6c-0.1,0.1-0.2,0.2-0.3,0.4
		c0.2,0.2,0.4,0.3,0.6,0.5c1.9,1.4,3.8,2.9,5.7,4.3c1.1,0.9,2.2,1.8,3,2.9c0.8,1,1.4,2.1,1.7,3.3c0.3,1.2,0.5,2.5,0.2,3.8
		c0,0.2,0,0.3,0,0.6c0.2-0.2,0.4-0.3,0.5-0.4c2.6-2.6,4.3-5.8,5.1-9.4c0-0.2,0.1-0.4,0.1-0.6c0-5.3,0.1-10.7,0.1-16
		c0-0.1,0-0.3,0-0.5c-0.7,0-1.4-0.1-2.1-0.1c-1.8-0.1-3.5-0.1-5.3-0.2c-0.8,0-1-0.2-1.1-1c-0.2-1.4,0.2-2.8,0.9-4
		c0.2-0.4,0.6-0.5,1.1-0.5c1.7,0.1,3.5,0.2,5.2,0.2c0.5,0,1.1,0,1.7,0c0-0.2,0-0.4,0-0.7c0.1-2.7,0.2-5.3,0.3-8c0-0.2,0-0.5,0.1-0.7
		c0.2-1.1,0.7-1.5,1.8-1.4c0.9,0.1,1.8,0.3,2.7,0.5c0.8,0.2,1.7,0.6,2.5,0.9c0.6,0.3,0.9,0.7,0.9,1.5c-0.1,2.5-0.2,5-0.3,7.5
		c0,0.3,0,0.5,0,0.8c1.1,0.1,2.2,0.2,3.2,0.2c1.9,0.1,3.8,0.2,5.7,0.3c0.1,0,0.2,0,0.3,0c1.1,0.1,1.4,0.5,1.3,1.6
		c-0.1,0.8-0.3,1.6-0.7,2.4c-0.3,0.5-0.7,0.7-1.3,0.7c-2.6,0-5.2,0.1-7.9,0.1c-0.3,0-0.5,0-0.8,0c-0.1,0.8-0.1,1.5-0.1,2.3
		c-0.2,5.7-0.3,11.4-0.5,17.1c0,1.9,0,3.7,0.1,5.6c0.1,1.5,0.5,2.9,1.1,4.2c0.3,0.5,0.6,1,1.1,1.3c0.3,0.2,0.5,0.2,0.9,0.1
		c1.1-0.3,1.9-1,2.6-1.8c1.3-1.5,2.2-3.2,2.8-5.1c0.5-1.4,0.7-2.8,0.7-4.2c0.1-1.6,0.1-3.2,0.4-4.7c0.6-3.7,1.7-7.3,4.2-10.3
		c1.3-1.6,2.8-2.9,4.8-3.4c2.7-0.7,5.3-0.2,7.4,1.7c0.5,0.5,1,1.1,1.5,1.6c0.1,0.1,0.1,0.2,0.2,0.2c0-0.1,0-0.2,0-0.3
		c0-0.3,0-0.5,0-0.8c0.1-0.8,0.7-1.5,1.5-1.5c0.8,0,1.5,0.1,2.3,0.2c0.5,0.1,1,0.2,1.5,0.4c0.3,0.1,0.7,0.3,1,0.5
		c0.7,0.4,0.9,0.9,0.9,1.7c-0.1,5.2-0.3,10.3-0.4,15.5c0,2.4,0.1,4.8,0.4,7.1c0.2,1,0.4,2,0.9,2.9c0.5,0.9,1.2,1.3,2.2,1.3
		c0.5,0,1-0.2,1.3-0.5c0.4-0.4,0.9-0.8,1.2-1.4c0.4-0.8,0.7-1.6,1.1-2.4c0.4-0.9,0.2-1.8,0.1-2.8c-0.1-0.4,0-0.7-0.1-1.1
		c-0.1-2.4-0.1-4.8,0.1-7.2c0.4-3.8,1.5-7.4,3.5-10.7c0.7-1.1,1.4-2,2.4-2.9c3.3-2.9,8.5-2.9,11.7,1c0.2,0.2,0.4,0.5,0.7,0.9
		c0-0.4,0-0.6,0-0.8c0-1.1,0.6-1.7,1.7-1.8c1-0.1,2,0.1,2.9,0.4c0.5,0.1,1.1,0.4,1.6,0.6c0.7,0.3,1,0.8,1,1.6
		c-0.1,1.4-0.1,2.8-0.1,4.2c0,5.9-0.1,11.8-0.1,17.8c0,0.1,0,0.2,0,0.3c2.1-1.4,7.3-12.5,8.1-17.1c0,0-0.1-0.1-0.1-0.1
		c-3.3-2.4-2.1-7,0.1-8.7c1-0.8,2.1-1.2,3.5-0.9c0.3,0.1,0.7,0,1,0.1c1,0.3,1.6,1.1,1.9,2.1c0.2,1,0,2-0.1,2.9
		c0,0.1,0.1,0.1,0.1,0.2c2.4-0.4,4.7-0.9,7.1-1.3c0.7-0.1,1.4-0.1,2.1,0c1.5,0.3,2.7,1.5,2.6,3.1c0,0.9-0.2,1.8-0.3,2.6
		c-0.4,2-1,4-1.3,6.1c-0.4,2.6-0.6,5.3-0.4,8c0.1,1.4,0.3,2.8,0.7,4.2c0.3,0.8,0.6,1.6,1.1,2.3c1.1,1.5,2.8,1.6,4.1,0.3
		c1.1-1.1,1.6-2.5,1.9-4c0-0.2,0-0.4-0.1-0.6c-0.5-2-0.5-4.1-0.5-6.1c0-1.7,0.2-3.3,0.4-5c0.4-3.7,1.7-7.2,3.9-10.3
		c1.2-1.7,2.8-3,4.8-3.7c1.3-0.4,2.6-0.4,4-0.2c2.2,0.4,3.7,1.7,5.1,3.3c0.1,0.1,0.1,0.1,0.3,0.4c0-0.5,0-0.8,0-1.1
		c0-0.9,0.6-1.5,1.4-1.6c1.7-0.1,3.3,0.2,4.9,1.1c0.6,0.4,0.9,0.9,0.9,1.7c-0.1,4.4-0.3,8.8-0.3,13.2c0,2.7,0.1,5.3,0.1,8
		c0,1.2,0.3,2.3,0.6,3.5c0.1,0.4,0.3,0.8,0.5,1.1c0.8,1.3,2.3,1.5,3.4,0.6c0.5-0.4,0.9-0.8,1.2-1.3c1.3-2,2-4.2,2.5-6.5
		c0-0.2,0-0.4,0-0.5c0.1-6.5,0.1-12.9,0.2-19.4c0-1.6,0.4-2,2-1.8c1.3,0.2,2.5,0.5,3.8,0.8c0.7,0.2,1,0.7,1.1,1.4c0,0.3,0,0.6,0,0.9
		c0,3.4,0,6.8,0,10.2c0,0.2,0,0.4,0,0.7l0.1,0C239.6,41.1,239.7,40.8,239.8,40.6 M128.1,42.3c-0.1-1.2-0.2-2.9-0.4-4.6
		c-0.2-1.3-0.6-2.6-1.4-3.7c-1.4-2-4-2.4-5.8-0.7c-0.6,0.5-1.1,1.2-1.5,2c-0.5,1-1,2.1-1.2,3.3c-0.9,3.9-1.1,7.9-0.6,11.8
		c0.2,1.5,0.5,3,1.2,4.3c0.3,0.7,0.8,1.3,1.3,1.8c0.9,0.9,2,1.1,3.1,0.6c0.6-0.3,1.1-0.6,1.6-1.1c1-0.9,1.6-2.1,2.2-3.4
		c0.8-2.1,1.2-4.2,1.4-6.4C127.9,45,128,43.9,128.1,42.3 M206,45.9c0.1,1.9,0.2,3.4,0.3,4.9c0,0.5,0.2,0.9,0.3,1.3
		c0.3,1.4,0.7,2.8,1.7,3.9c1.2,1.5,2.5,1.6,4.1,0.7c0.6-0.3,1.2-0.9,1.6-1.4c0.6-0.8,1.1-1.7,1.4-2.6c1-2.2,1.4-4.6,1.6-7
		c0.2-2,0.2-4,0-6.1c-0.1-0.8-0.2-1.6-0.3-2.4c-0.2-1.3-0.6-2.5-1.4-3.5c-0.5-0.7-1.2-1.3-2.1-1.5c-1.5-0.4-2.8,0.1-3.9,1.1
		c-0.8,0.8-1.4,1.8-1.8,2.8c-0.6,1.5-1,3.1-1.1,4.7C206.2,42.7,206.1,44.5,206,45.9 M160.5,42.1c-0.1-1.1-0.1-2.2-0.2-3.4
		c0-0.4-0.1-0.8-0.2-1.2c-0.2-1.4-0.6-2.7-1.4-3.8c-0.5-0.7-1.2-1.2-2.1-1.3c-1.3-0.2-2.4,0.1-3.3,0.9c-0.6,0.5-1.1,1.2-1.5,1.8
		c-1.3,2.1-1.8,4.5-2.2,6.8c-0.2,1.1-0.2,2.3-0.2,3.4c-0.1,2.1,0,4.1,0.4,6.1c0.2,1.3,0.6,2.5,1.2,3.7c0.4,0.7,0.8,1.3,1.5,1.8
		c0.5,0.3,0.9,0.5,1.5,0.5c1.1-0.1,2-0.5,2.8-1.3c0.9-0.9,1.6-2,2.1-3.3c0.9-2.3,1.3-4.7,1.6-7.1C160.4,44.5,160.4,43.3,160.5,42.1
		 M161.3,65.1c-2.4,1.9-6.4,6.4-7.8,8.8c-0.5,0.9-1,1.9-1.4,2.9c-0.4,1.1-0.6,2.2-0.5,3.3c0.2,2,1.7,3.5,3.7,3.4
		c1.6-0.1,2.9-0.8,3.7-2.2c0.6-1,1-2.2,1.3-3.3c0.3-1.8,0.7-3.5,0.8-5.3C161.2,70.2,161.2,67.6,161.3,65.1"/>
	<path class="st4" d="M4.9,28.1c0.7-4.3,2.6-8,5.2-11.4c2.2-2.8,4.8-5.1,7.9-6.7c1.2-0.6,2.5-0.7,3.8-0.5c1.2,0.2,2.2,0.6,3.2,1.3
		c0.8,0.5,1.1,1.2,1.1,2.1c0,12.2,0,24.4,0,36.6c0,2-0.1,4-0.3,6c-0.2,2.6-0.9,5.1-2.2,7.5c-1.1,2-2.6,3.5-4.7,4.6
		c-0.5,0.2-1,0.4-1.5,0.5c-0.6,0.1-0.9-0.2-0.9-0.9c0-0.4,0.1-0.8,0.2-1.2c0.3-1.4,0.8-2.7,1-4.1c0.2-1,0.3-2.1,0.4-3.1
		c0.1-1.7,0.2-3.3,0.2-5c0.1-12.5,0.1-25,0.2-37.5c0-0.4,0-0.9,0-1.3c0-0.3-0.1-0.5-0.2-0.9c-0.4,0.3-0.7,0.4-0.9,0.7
		c-0.8,0.9-1.7,1.8-2.4,2.9c-2.6,4-3.9,8.3-4,13.1c0,2.8,0.6,5.4,2.2,7.8c0.2,0.3,0.4,0.7,0.5,1c0.2,0.7-0.2,1.1-0.9,1.2
		c-0.6,0-1.2-0.1-1.7-0.4c-3.4-1.6-5.5-4.2-6.3-7.9c-0.1-0.3-0.2-0.6-0.3-0.9v-2.2C4.7,28.8,4.8,28.5,4.9,28.1"/>
</g>
</svg>
