<?xml version="1.0" encoding="utf-8"?>
<!-- Generator: Adobe Illustrator 23.1.0, SVG Export Plug-In . SVG Version: 6.00 Build 0)  -->
<svg version="1.1" id="Lager_1" xmlns="http://www.w3.org/2000/svg" xmlns:xlink="http://www.w3.org/1999/xlink" x="0px" y="0px"
	 viewBox="0 0 282.1 96.2" style="enable-background:new 0 0 282.1 96.2;" xml:space="preserve">
<style type="text/css">
	.st0{clip-path:url(#SVGID_2_);}
	.st1{clip-path:url(#SVGID_4_);}
	.st2{display:none;}
	.st3{display:inline;fill:#1D1D1B;}
	.st4{display:inline;}
	.st5{display:inline;fill:#797979;}
	.st6{display:inline;fill:#343434;}
	.st7{display:inline;fill:#FFFFFF;fill-opacity:0.96;}
	.st8{display:inline;fill:#5F5F5F;}
	.st9{display:inline;fill-rule:evenodd;clip-rule:evenodd;}
	.st10{fill:none;stroke:#5F6C70;stroke-width:7.6162;}
	.st11{fill:#FFFFFF;}
	.st12{fill:none;}
	.st13{fill-rule:evenodd;clip-rule:evenodd;}
</style>
<image style="display:none;overflow:visible;" width="272" height="92" xlink:href="../google-logo.png"  transform="matrix(1 0 0 1 2.8947 0)">
</image>
<g>
	<defs>
		<rect id="SVGID_1_" x="5.1" y="19.4" width="272" height="57.4"/>
	</defs>
	<clipPath id="SVGID_2_">
		<use xlink:href="#SVGID_1_"  style="overflow:visible;"/>
	</clipPath>
	<g class="st0">
		<defs>
			<rect id="SVGID_3_" x="5.1" y="19.4" width="272" height="57.4"/>
		</defs>
		<clipPath id="SVGID_4_">
			<use xlink:href="#SVGID_3_"  style="overflow:visible;"/>
		</clipPath>
		<g class="st1">
			<g>
				<path d="M258.4,77.2c-0.1,0-0.1-0.1-0.2-0.1c-4.6-1.2-8.5-3.4-8.8-8.6c-0.3-6.2,2.1-11.3,7.7-14.4c3.9-2.1,8.3-2.2,12.5-1.1
					c4,1,5.3,4.4,3.2,7.9c-2.2,3.7-5.8,5.2-9.9,5.9c-0.8,0.2-1.9-0.1-2.3,0.9c-0.3,1,0.4,1.8,1,2.5c1.7,2,3.8,2.5,6.4,1.6
					c2.3-0.8,4.4-2.2,6.3-3.7c1-0.7,1.9-1.1,3-0.8c0,0.6,0,1.3,0,1.9c-3.3,4.2-7.8,6.7-12.9,8.1C262.6,77.2,260.5,77.2,258.4,77.2z
					 M260.4,62.2c-0.2,1.5,0.3,2.1,1.6,1.6c2.7-0.9,4.7-2.5,5.9-5.1c0.4-0.9,0.6-1.9-0.2-2.6c-0.9-0.8-1.9-0.7-2.9-0.2
					C262.1,57.2,261.3,59.8,260.4,62.2z"/>
				<path d="M233.6,77.2c-1.3-0.5-2.6-0.8-3.8-1.4c-2.5-1.2-3.6-3.2-3.4-5.9c0.1-1.8,1-2.9,2.9-3.2c1.9-0.3,3,0.6,3.6,2.3
					c0.2,0.7,0.3,1.6,0.5,2.3c0.3,1,1.1,1.6,2.1,1.5c1.1-0.1,1.5-1,1.6-2c0.1-1.6-0.6-2.7-1.7-3.7c-1.1-1-2.4-1.8-3.5-2.8
					c-3.9-3.4-3.1-8.7,1.6-10.8c3.6-1.5,7.4-2,11.2-0.8c3.1,1,4.5,3.7,3.4,6.2c-0.8,1.8-2.2,2.5-4,2c-1.7-0.5-2.3-1.8-1.5-3.6
					c0.3-0.7,0.3-1.4-0.5-1.9c-0.8-0.5-1.7-0.4-2.5,0c-0.9,0.5-1.4,1.4-1.1,2.4c0.2,0.7,0.7,1.4,1.2,2c1.2,1.4,2.7,2.4,4.2,3.5
					c5.1,3.8,4.4,10-1.4,12.5c-1.1,0.5-2.4,0.8-3.6,1.2C237.1,77.2,235.4,77.2,233.6,77.2z"/>
				<path d="M111.9,35.5c1.7,0,3.7,0.1,5.8,0.5c6.6,1.5,9.2,7.5,5.7,13.3c-2.8,4.6-7.1,7.1-12.2,8.4c-2.1,0.5-4.2,1-6.3,1.3
					c-2.2,0.3-2.6,1.5-2.2,3.3c0.7,3.4,4,6.2,8.4,6.7c5.7,0.7,10.9-0.8,15.3-4.5c1.8-1.5,3.2-3.5,3.2-5.9
					c0-11.7,10.1-23.1,25.3-23.2c4.5,0,8.9,0.6,12.6,3.5c2,1.6,3.1,3.7,2.5,6.2c-0.5,2.6-1.8,4.7-4.5,5.7c-1.1,0.4-2.2,0.5-3.3,0.4
					c-3.3-0.3-4.6-2.4-3.4-5.5c0.4-1,0.9-1.9,1.2-2.8c0.7-2.5-0.3-3.7-2.9-3.2c-2.8,0.6-5.2,2.1-6.8,4.4c-3.4,5.1-4.8,10.6-3.1,16.7
					c2,7.1,7.9,10.2,14.9,7.9c2.6-0.8,5-2,7.3-3.5c2.9-1.9,4.5-4.4,4.7-8c0.7-10.4,9.6-19.6,21-21.9c3.8-0.8,7.6-0.9,11.3,0.2
					c6.5,1.9,10.1,6.4,10.9,13c1.6,12.5-7.4,25.2-19.9,27.3c-8.4,1.4-16.6,0.4-22.1-7.5c-1.2-1.7-2.5-1-3.9,0
					c-5,3.7-10.4,6.4-16.5,7.6c-8.9,1.8-16.6-0.3-22.7-7.1c-1.6-1.8-2.8-1.7-4.6-0.4c-7.1,5.1-14.9,8.3-24,7.9c-2-0.1-4-0.3-5.9-0.8
					c-10.8-2.7-15.6-12.9-11.4-24.2C90.2,41.5,99.6,35.5,111.9,35.5z M211.2,51.7c0-0.7,0-1.4,0-2.1c-0.6-7.9-7.2-11.4-14.1-7.6
					c-6.2,3.6-10.3,12.2-9,19.2c1.4,7.4,7.3,10.4,13.9,6.7C208.4,64.4,210.9,58.6,211.2,51.7z M103.9,55.2c0.6-0.2,1.6-0.4,2.4-0.8
					c3.4-1.5,6.2-3.7,8.6-6.5c1-1.2,1.7-2.5,1.9-4c0.5-3.4-1.9-5.6-5.2-4.6c-4.1,1.2-10,8.9-10.1,13.2
					C101.6,53.9,101.9,55.1,103.9,55.2z"/>
				<path d="M26.2,20.4c9.5,0,17.9,6.9,19.4,16.1c1.7,9.9-3.7,19.2-13,22.4c-2.9,1-3,1.6-0.8,3.8c1,1,2.3,1.7,3.6,2.3
					c0.5,0.2,1.3,0.2,1.1,1c-0.2,0.7-0.9,0.4-1.5,0.4c-7.9-0.4-14.9-3-20.6-8.6C9.3,52.8,6,47.2,6,40C6,28.9,14.9,20.3,26.2,20.4z
					 M35.5,40.9c-2.3,0-4.6,0-6.9,0c-1.2,0-1.9,0.3-1.9,1.7c0.1,4.6,0,9.2,0,13.7c0,1.2,0.5,1.4,1.6,1.4c7.1-0.4,14.7-7.9,15.3-15
					c0.1-1.4-0.3-1.8-1.7-1.8C39.8,41,37.6,40.9,35.5,40.9z M16.7,39.3c2.3,0,4.6,0,6.9,0c1.1,0,1.5-0.4,1.5-1.5c0-4.7,0-9.3,0-14
					c0-1-0.2-1.4-1.4-1.3c-7.5,0.5-15,8-15.5,15.4c-0.1,1.1,0.2,1.4,1.3,1.4C11.9,39.3,14.3,39.3,16.7,39.3z"/>
				<path d="M70.4,44.5c2.1-2.4,3.6-4.4,5.5-6.1c1.3-1.1,2.6-2.1,4.1-2.8c2-0.9,4-1.3,5.9,0.1c2,1.5,2.8,3.7,2.3,6.1
					c-0.8,4.3-3.6,7.1-7.7,8.6c-1.9,0.7-3.4,0-4.3-1.8c-1.6-2.9-2.8-3-4.7-0.2c-3.1,4.7-4.5,10.1-5.8,15.4c-0.8,3.1-1.4,6.3-1.9,9.5
					c-0.2,1.4-0.9,2-2.4,2.1c-3.3,0.1-6.7,0.4-10,0.6c-2.7,0.1-3.3-0.7-2.8-3.2c0.8-3.5,2.2-6.7,3.4-10.1c1.5-4.4,2.7-8.9,3.2-13.6
					c0.3-2.7-0.1-5.1-1.4-7.5c-1.2-2.1-0.8-2.9,1.5-3.7c3.5-1.2,7-1.9,10.7-2.2c3.9-0.3,5.1,0.8,4.8,4.7
					C70.7,41.6,70.6,42.7,70.4,44.5z"/>
				<path d="M222.7,72.5c0,2.4-1.9,4.3-4.4,4.3c-2.5,0-4.4-1.8-4.4-4.3c0-2.5,1.9-4.3,4.4-4.3C220.8,68.2,222.7,70.1,222.7,72.5z"/>
			</g>
		</g>
	</g>
</g>
<g class="st2">
	<path class="st3" d="M63.9,12.8c-2.5,2.3-4.8,4.3-7.2,6.4c-1.1-0.8-2.5-1.9-4-2.8C49,14.1,45,13,40.6,12.9c-5.1-0.1-9.7,1-13.9,3.7
		C20,20.9,16.1,27,15.2,34.9c-0.8,6.8,0.6,13,4.8,18.5c4,5.2,9.3,8.3,15.8,9.5c6.3,1.1,12.1,0,17.5-3.2c5.7-3.4,8.5-8.7,9.2-15.3
		H39.7V35h32.1c0.1,0.5,0.2,1,0.2,1.5c0.4,6,0.3,11.9-2.1,17.5c-4,9.4-11.1,15.2-21,17.6c-3.7,0.9-7.5,1.4-11.2,1
		c-10.6-1-19.5-5.4-26-14.1C8,53.7,5.8,48.3,4.9,42.3c-1.1-8.1,0.7-15.7,5.1-22.5C17.3,8.9,27.5,3.2,40.7,3.4c8.3,0.1,15.7,3,22,8.5
		C63,12.2,63.3,12.4,63.9,12.8"/>
	<path class="st3" d="M207.2,33.3c0-1.3-0.1-2.4,0-3.5c0-0.3,0.5-0.9,0.7-0.9c2.8-0.1,5.6,0,8.6,0v1.2c0,13.1,0,26.2,0,39.2
		c0,3.9-0.4,7.8-2,11.5c-2.9,6.8-8.2,10.5-15.4,11.6c-6.2,0.9-11.8-0.3-16.8-4.1c-3-2.3-5.1-5.3-6.7-8.7c2.9-1.2,5.7-2.3,8.3-3.4
		c1.3,1.6,2.3,3.3,3.7,4.7c4.1,3.9,11,4.3,15.5,0.8c2.6-2,3.8-4.9,4.1-8.1c0.2-1.9,0-3.9,0-5.9c-1.2,1-2.3,2-3.6,2.8
		c-4.8,2.9-9.9,2.9-15,1c-8.7-3.3-13.6-9.8-14.6-19c-1.3-11.8,8.1-24.6,21.8-24.3C200.3,28.2,204,29.8,207.2,33.3 M208,50.5
		c0.1-3.1-0.6-5.9-2.3-8.4c-4.9-7.4-14.6-6.6-19.2-0.5c-2.8,3.8-3.7,8.1-2.4,12.7c2.2,7.8,10,11.7,16.8,8.4
		C205.9,60.3,207.9,55.9,208,50.5"/>
	<path class="st3" d="M121.2,50.7c0,7.5-3,13.4-9,17.9c-2.4,1.7-5.1,2.6-7.9,3.4c-2.2,0.6-4.4,0.9-6.7,0.7c-4.3-0.3-8.4-1.5-12-4.2
		c-4.6-3.4-7.5-8-8.7-13.5c-0.6-2.8-0.6-5.6-0.1-8.6c0.8-4.4,2.6-8.1,5.6-11.3c3.7-4.1,8.4-6.3,13.9-6.9c6.6-0.6,12.7,1,17.8,5.4
		c3.8,3.2,6,7.4,6.7,12.3C120.9,47.5,121,49.1,121.2,50.7 M111.5,50.3c0.1-3.9-1.2-7.4-3.9-10c-6.5-6.2-16.3-3.9-19.8,3.7
		c-2.6,5.6-2.1,11,2,15.8c2.9,3.4,6.9,4.9,11.2,4C107.5,62.4,111.3,57.5,111.5,50.3"/>
	<path class="st3" d="M169.8,50.7c0,7.5-3,13.4-9,17.9c-2.4,1.7-5.1,2.6-7.9,3.4c-2.2,0.6-4.4,0.9-6.7,0.7c-4.3-0.3-8.4-1.5-12-4.2
		c-4.6-3.4-7.5-8-8.7-13.5c-0.6-2.8-0.6-5.6-0.1-8.6c0.8-4.4,2.6-8.1,5.6-11.3c3.7-4.1,8.4-6.3,13.9-6.9c6.6-0.6,12.7,1,17.8,5.4
		c3.8,3.2,6,7.4,6.7,12.3C169.6,47.5,169.6,49.1,169.8,50.7 M160.1,50.3c0.1-3.9-1.2-7.4-3.9-10c-6.5-6.2-16.3-3.9-19.8,3.7
		c-2.6,5.6-2.1,11,2,15.8c2.9,3.4,6.9,4.9,11.2,4C156.1,62.4,159.9,57.5,160.1,50.3"/>
	<path class="st3" d="M277.5,44.7c-10,4.1-19.9,8.3-29.9,12.4c1.5,3.3,3.9,5.6,7.2,6.4c6,1.5,10.9-0.6,14.6-5.7c2.6,1.7,5,3.3,7.6,5
		c-2.5,3.4-5.3,6-9,7.7c-1.2,0.5-2.3,1.3-3.5,1.6c-1.6,0.4-3.3,0.5-5,0.6c-6.3,0.2-11.9-1.7-16.6-6.1c-3.3-3.1-5.2-7.1-6.1-11.5
		c-1.3-6.2-0.2-12.1,3-17.4c3.1-5,7.7-8.2,13.6-9.2c7.4-1.3,13.6,0.8,18.6,6.4c1.2,1.4,2.2,3,3,4.6C276,41.1,276.7,42.8,277.5,44.7
		 M246.1,49.5c6.7-2.7,13.2-5.4,19.8-8.1c-1.7-4.2-7.8-6.5-13.4-3.4C248.3,40.3,244.6,47.1,246.1,49.5"/>
	<rect x="223" y="5.7" class="st3" width="8.9" height="65.7"/>
</g>
<g class="st2">
	<path class="st3" d="M239.8,40.6c0.8-2.3,1.5-4.6,2.3-6.8c0.4-1.2,0.9-2.4,1.4-3.5c0.3-0.6,0.6-1.2,0.9-1.7c0.5-1,1.4-1.3,2.5-1.2
		c1.3,0.1,2.5,0.5,3.5,1.1c1.3,0.7,2.1,1.8,2.2,3.3c0,0.4,0.1,0.8,0.1,1.2c0.1,3.4,0.2,6.7,0.4,10.1c0,1.2,0.2,2.3,0.4,3.5
		c0.1-0.1,0.1-0.3,0.2-0.4c0.9-5.8,2.7-11.3,4.9-16.7c0.1-0.3,0.3-0.6,0.4-0.8c0.6-0.9,1.4-1.3,2.5-1.2c2,0.2,3.8,1,5.4,2.2
		c0.8,0.6,1.2,1.5,1.1,2.5c-0.1,2.2-0.2,4.4-0.2,6.6c-0.1,3.7-0.1,7.4,0.1,11.1c0.1,1.6,0.3,3.2,0.9,4.8c0.3,0.7,0.6,1.4,1.1,1.9
		c0.8,1,2.1,1,3,0c0.4-0.5,0.8-1.2,1-1.8c0.4-1.1,0.7-2.2,1-3.4c0.1-0.5,0.3-1.1,0.5-1.6c0.2-0.5,0.5-0.8,1.1-0.7
		c0.5,0,0.8,0.3,0.9,0.8c0,0,0.1,0,0.1,0.1v2.8c0,0.1-0.1,0.2-0.1,0.3c-0.1,1.5-0.6,3-1.2,4.3c-0.5,1.2-1.1,2.2-2.1,3.1
		c-1.4,1.3-3.1,1.8-5,1.5c-2.5-0.4-4.4-1.9-5.7-4.2c-1-1.8-1.5-3.8-1.9-5.9c-0.2-0.9-0.2-1.7-0.2-2.6c-0.1-1.9-0.2-3.8-0.3-5.7
		c0-2.5,0.1-5.1,0.1-7.6c0-0.1-0.1-0.1-0.1-0.2c-0.1,0.1-0.1,0.1-0.2,0.2c-0.9,2.2-1.8,4.5-2.6,6.7c-1,3.1-1.7,6.2-2.1,9.5
		c-0.2,1.7-0.3,3.5-0.4,5.3c-0.1,1-0.3,1.5-1.4,1.8c-2.9,0.6-5.1-0.5-6-3.3c-0.5-1.5-0.8-3.1-1-4.7c-0.1-1.2-0.3-2.4-0.5-3.6
		c-0.1-1-0.1-1.9-0.2-2.9c-0.1-2.6-0.2-5.2-0.4-7.8c0-0.3-0.1-0.5-0.1-0.8c-0.5,0.2-0.7,0.5-0.9,0.9c-1.3,2.2-2.1,4.6-2.8,7
		c-0.8,2.8-1.5,5.6-1.6,8.5c-0.1,2.3-0.2,4.5-0.3,6.8c0,0.4,0,0.8-0.1,1.2c-0.2,0.9-0.5,1.2-1.4,1.3c-0.9,0.2-1.8,0.2-2.7,0.2
		c-1,0-2-0.3-2.9-0.7c-0.6-0.3-1-0.7-1-1.4c-0.1-1-0.2-2-0.2-3c0,0,0-0.1,0-0.1c0,0-0.1,0-0.1,0c0,0,0,0.1,0,0.1
		c-0.1,0.2-0.3,0.4-0.4,0.5c-0.5,0.8-1,1.7-1.6,2.4c-0.8,1.1-2,1.8-3.3,2c-3,0.5-5.4-0.6-7.2-2.9c-0.7-0.9-1.1-2-1.4-3.1
		c0-0.1-0.1-0.2-0.2-0.5c-0.3,0.5-0.5,0.8-0.8,1.2c-1.5,2.3-3.4,4-6,4.9c-1.6,0.6-3.3,0.8-5,0.3c-2.5-0.7-4.2-2.2-5.5-4.3
		c-0.1-0.2-0.2-0.4-0.4-0.7c-0.2,0.3-0.3,0.6-0.5,0.8c-0.8,1.4-1.8,2.5-3.2,3.4c-1.4,0.8-2.8,1.2-4.4,0.9c-2-0.4-3.6-1.4-4.9-2.8
		c-1.4-1.6-2.2-3.4-2.7-5.5c-0.7-3.2-0.7-6.4-0.4-9.6c0.1-0.9,0.1-1.9,0.3-2.8c0.3-1.6,0.7-3.2,1-4.8c0-0.2,0-0.4,0.1-0.8
		c-1.9-0.1-3.7,0.1-5.5,0.1c-3,8.4-7.3,16.1-13,22.7c0,1.5,0,2.9,0,4.3c0,2.8,0.2,5.7-0.1,8.5c-0.1,1.1-0.3,2.1-0.5,3.2
		c-0.2,2.2-0.8,4.2-1.8,6.2c-1.5,3-3.9,5.1-7.2,6.1c-0.3,0.1-0.6,0.2-0.8,0.3h-3.3c-0.4-0.1-0.7-0.2-1.1-0.3
		c-1.4-0.4-2.7-0.9-3.8-1.9c-1.7-1.4-2.6-3.2-2.7-5.4c-0.1-2.1,0.4-4.1,1.5-5.9c1-1.7,2.3-3.3,3.7-4.7c2.9-2.8,5.9-5.6,8.9-8.3
		c0.4-0.4,0.6-0.8,0.6-1.3c-0.1-0.7-0.1-1.5-0.1-2.3c0,0-0.1-0.1-0.1-0.1c0,0.1-0.1,0.1-0.1,0.2c-1.4,1.9-3,3.4-5.2,4.3
		c-4.1,1.7-8.2,0.4-10.7-3.3c-0.3-0.5-0.6-1-0.9-1.5c-0.1,0.2-0.2,0.4-0.4,0.6c-0.4,0.7-0.8,1.4-1.3,2c-1.7,2.1-3.9,3.1-6.6,2.7
		c-2.8-0.4-4.7-2.1-5.7-4.7c-0.2-0.6-0.3-1.2-0.5-1.8c-0.1,0.2-0.3,0.4-0.4,0.6c-1,1.7-2.2,3.2-3.9,4.3c-1.6,1.1-3.3,1.7-5.1,1.8
		c-3,0.2-5.4-1.1-7.2-3.4c-1.1-1.4-1.8-3-2.3-4.7c-0.1-0.2-0.1-0.4-0.2-0.7c-0.1,0.3-0.2,0.5-0.3,0.7c-0.8,1.9-1.8,3.6-3.1,5.2
		c-0.4,0.5-0.9,0.9-1.4,1.4c-2.9,2.5-6.3,1.7-8.3,0c-1.2-1-2-2.3-2.7-3.7c-0.6-1.4-1-2.8-1.3-4.2c-0.2-0.9-0.3-1.9-0.4-2.8
		c0-0.1,0-0.2,0-0.4c0,0-0.1,0-0.1,0c0,0.1-0.1,0.2-0.1,0.4c-1.2,2.8-2.7,5.3-4.7,7.6c-2.3,2.5-5,4.1-8.4,4.6
		c-2.1,0.4-4.2,0.3-6.3-0.1c-1.5-0.3-2.9-0.6-4.3-1.4c-1.8-1-2.1-1.8-1.3-3.6c0.4-0.9,1-1.8,1.8-2.4c0.7-0.6,1.3-0.6,2.1-0.2
		c0.4,0.2,0.8,0.5,1.2,0.8c0.6,0.4,1.2,0.9,1.8,1.2c3.4,1.7,5.3-0.6,5.6-3.1c0.1-1.4-0.1-2.6-0.7-3.8c-0.6-1.2-1.3-2.2-2.2-3.1
		c-1.4-1.3-2.8-2.6-4.2-3.9c-0.1-0.1-0.2-0.1-0.3-0.2c-0.7,1.2-1.4,2.4-2.1,3.6c-1.8,3-3.7,6.1-5.5,9.1c-1,1.6-2.2,3-3.5,4.3
		c-1,0.9-2,1.8-3.2,2.3c-1,0.5-2.1,0.7-3.2,0.5c-1.2-0.2-2-0.8-2.6-1.8c-0.6-0.9-0.8-1.8-1.1-2.8c-0.5-1.6-0.5-3.2-0.6-4.8
		c-0.2-3.7,0-7.4,0.2-11.1c0.1-2.5,0.2-5,0.3-7.6c0-0.2-0.1-0.3-0.1-0.5c-0.4,0-0.6,0.2-0.8,0.5c-0.9,1.1-1.8,2.3-2.6,3.5
		c-2.3,3.6-3.9,7.5-5.1,11.5c-1,3-1.8,6.1-2.4,9.3c-0.1,0.8-0.2,1.6-0.3,2.5c-0.1,1-0.3,1.2-1.3,1.4c-1.2,0.2-2.3,0.1-3.5-0.1
		c-0.9-0.2-1.4-0.9-1.8-1.7c-0.4-1-0.6-2.1-0.6-3.1c0-1.2-0.1-2.5-0.1-3.7c0-8.1,0.1-16.1,0.1-24.2c0-0.2,0-0.3,0-0.5
		c0-0.7,0.3-1,1-1.1c0.6,0,1.3,0,1.9,0.1c0.9,0.2,1.8,0.6,2.7,0.9c0.8,0.3,1.1,0.8,1.1,1.7c-0.1,4.7-0.1,9.4-0.1,14
		c0,0.3,0,0.6,0.1,0.9c0.1-0.2,0.2-0.3,0.2-0.5c1-2.6,1.9-5.3,3-7.9c0.9-2.2,2-4.2,3.5-6c0.8-1,1.7-1.8,2.8-2.4
		c1.2-0.6,2.4-1.1,3.7-0.7c1.7,0.4,3.2,1.3,4.5,2.5c0.8,0.7,1.2,1.6,1.1,2.7c-0.1,2.1-0.2,4.3-0.2,6.4c-0.1,4.2-0.4,8.4-0.1,12.5
		c0,0.8,0.1,1.5,0.3,2.3c0.1,0.3,0.2,0.5,0.3,0.8c0.2,0.4,0.6,0.5,1,0.3c0.4-0.2,0.8-0.4,1.1-0.7c0.7-0.7,1.3-1.5,1.8-2.3
		c2.1-3.5,4.1-6.9,6.1-10.4c0.4-0.7,0.8-1.5,1.2-2.2c-0.2-0.2-0.3-0.4-0.4-0.5c-1.6-2-2-4.2-1.1-6.6c1-2.6,2.8-4.5,5.5-5.3
		c1.2-0.4,2.5-0.2,3.7,0.1c1.1,0.3,1.8,1.5,1.7,2.9c-0.1,0.9-0.3,1.7-0.7,2.5c-0.7,1.6-1.6,3.2-2.8,4.6c-0.1,0.1-0.2,0.2-0.3,0.4
		c0.2,0.2,0.4,0.3,0.6,0.5c1.9,1.4,3.8,2.9,5.7,4.3c1.1,0.9,2.2,1.8,3,2.9c0.8,1,1.4,2.1,1.7,3.3c0.3,1.2,0.5,2.5,0.2,3.8
		c0,0.2,0,0.3,0,0.6c0.2-0.2,0.4-0.3,0.5-0.4c2.6-2.6,4.3-5.8,5.1-9.4c0-0.2,0.1-0.4,0.1-0.6c0-5.3,0.1-10.7,0.1-16
		c0-0.1,0-0.3,0-0.5c-0.7,0-1.4-0.1-2.1-0.1c-1.8-0.1-3.5-0.1-5.3-0.2c-0.8,0-1-0.2-1.1-1c-0.2-1.4,0.2-2.8,0.9-4
		c0.2-0.4,0.6-0.5,1.1-0.5c1.7,0.1,3.5,0.2,5.2,0.2c0.5,0,1.1,0,1.7,0c0-0.2,0-0.4,0-0.7c0.1-2.7,0.2-5.3,0.3-8c0-0.2,0-0.5,0.1-0.7
		c0.2-1.1,0.7-1.5,1.8-1.4c0.9,0.1,1.8,0.3,2.7,0.5c0.8,0.2,1.7,0.6,2.5,0.9c0.6,0.3,0.9,0.7,0.9,1.5c-0.1,2.5-0.2,5-0.3,7.5
		c0,0.3,0,0.5,0,0.8c1.1,0.1,2.2,0.2,3.2,0.2c1.9,0.1,3.8,0.2,5.7,0.3c0.1,0,0.2,0,0.3,0c1.1,0.1,1.4,0.5,1.3,1.6
		c-0.1,0.8-0.3,1.6-0.7,2.4c-0.3,0.5-0.7,0.7-1.3,0.7c-2.6,0-5.2,0.1-7.9,0.1c-0.3,0-0.5,0-0.8,0c-0.1,0.8-0.1,1.5-0.1,2.3
		c-0.2,5.7-0.3,11.4-0.5,17.1c0,1.9,0,3.7,0.1,5.6c0.1,1.5,0.5,2.9,1.1,4.2c0.3,0.5,0.6,1,1.1,1.3c0.3,0.2,0.5,0.2,0.9,0.1
		c1.1-0.3,1.9-1,2.6-1.8c1.3-1.5,2.2-3.2,2.8-5.1c0.5-1.4,0.7-2.8,0.7-4.2c0.1-1.6,0.1-3.2,0.4-4.7c0.6-3.7,1.7-7.3,4.2-10.3
		c1.3-1.6,2.8-2.9,4.8-3.4c2.7-0.7,5.3-0.2,7.4,1.7c0.5,0.5,1,1.1,1.5,1.6c0.1,0.1,0.1,0.2,0.2,0.2c0-0.1,0-0.2,0-0.3
		c0-0.3,0-0.5,0-0.8c0.1-0.8,0.7-1.5,1.5-1.5c0.8,0,1.5,0.1,2.3,0.2c0.5,0.1,1,0.2,1.5,0.4c0.3,0.1,0.7,0.3,1,0.5
		c0.7,0.4,0.9,0.9,0.9,1.7c-0.1,5.2-0.3,10.3-0.4,15.5c0,2.4,0.1,4.8,0.4,7.1c0.2,1,0.4,2,0.9,2.9c0.5,0.9,1.2,1.3,2.2,1.3
		c0.5,0,1-0.2,1.3-0.5c0.4-0.4,0.9-0.8,1.2-1.4c0.4-0.8,0.7-1.6,1.1-2.4c0.4-0.9,0.2-1.8,0.1-2.8c-0.1-0.4,0-0.7-0.1-1.1
		c-0.1-2.4-0.1-4.8,0.1-7.2c0.4-3.8,1.5-7.4,3.5-10.7c0.7-1.1,1.4-2,2.4-2.9c3.3-2.9,8.5-2.9,11.7,1c0.2,0.2,0.4,0.5,0.7,0.9
		c0-0.4,0-0.6,0-0.8c0-1.1,0.6-1.7,1.7-1.8c1-0.1,2,0.1,2.9,0.4c0.5,0.1,1.1,0.4,1.6,0.6c0.7,0.3,1,0.8,1,1.6
		c-0.1,1.4-0.1,2.8-0.1,4.2c0,5.9-0.1,11.8-0.1,17.8c0,0.1,0,0.2,0,0.3c2.1-1.4,7.3-12.5,8.1-17.1c0,0-0.1-0.1-0.1-0.1
		c-3.3-2.4-2.1-7,0.1-8.7c1-0.8,2.1-1.2,3.5-0.9c0.3,0.1,0.7,0,1,0.1c1,0.3,1.6,1.1,1.9,2.1c0.2,1,0,2-0.1,2.9
		c0,0.1,0.1,0.1,0.1,0.2c2.4-0.4,4.7-0.9,7.1-1.3c0.7-0.1,1.4-0.1,2.1,0c1.5,0.3,2.7,1.5,2.6,3.1c0,0.9-0.2,1.8-0.3,2.6
		c-0.4,2-1,4-1.3,6.1c-0.4,2.6-0.6,5.3-0.4,8c0.1,1.4,0.3,2.8,0.7,4.2c0.3,0.8,0.6,1.6,1.1,2.3c1.1,1.5,2.8,1.6,4.1,0.3
		c1.1-1.1,1.6-2.5,1.9-4c0-0.2,0-0.4-0.1-0.6c-0.5-2-0.5-4.1-0.5-6.1c0-1.7,0.2-3.3,0.4-5c0.4-3.7,1.7-7.2,3.9-10.3
		c1.2-1.7,2.8-3,4.8-3.7c1.3-0.4,2.6-0.4,4-0.2c2.2,0.4,3.7,1.7,5.1,3.3c0.1,0.1,0.1,0.1,0.3,0.4c0-0.5,0-0.8,0-1.1
		c0-0.9,0.6-1.5,1.4-1.6c1.7-0.1,3.3,0.2,4.9,1.1c0.6,0.4,0.9,0.9,0.9,1.7c-0.1,4.4-0.3,8.8-0.3,13.2c0,2.7,0.1,5.3,0.1,8
		c0,1.2,0.3,2.3,0.6,3.5c0.1,0.4,0.3,0.8,0.5,1.1c0.8,1.3,2.3,1.5,3.4,0.6c0.5-0.4,0.9-0.8,1.2-1.3c1.3-2,2-4.2,2.5-6.5
		c0-0.2,0-0.4,0-0.5c0.1-6.5,0.1-12.9,0.2-19.4c0-1.6,0.4-2,2-1.8c1.3,0.2,2.5,0.5,3.8,0.8c0.7,0.2,1,0.7,1.1,1.4c0,0.3,0,0.6,0,0.9
		c0,3.4,0,6.8,0,10.2c0,0.2,0,0.4,0,0.7l0.1,0C239.6,41.1,239.7,40.8,239.8,40.6 M128.1,42.3c-0.1-1.2-0.2-2.9-0.4-4.6
		c-0.2-1.3-0.6-2.6-1.4-3.7c-1.4-2-4-2.4-5.8-0.7c-0.6,0.5-1.1,1.2-1.5,2c-0.5,1-1,2.1-1.2,3.3c-0.9,3.9-1.1,7.9-0.6,11.8
		c0.2,1.5,0.5,3,1.2,4.3c0.3,0.7,0.8,1.3,1.3,1.8c0.9,0.9,2,1.1,3.1,0.6c0.6-0.3,1.1-0.6,1.6-1.1c1-0.9,1.6-2.1,2.2-3.4
		c0.8-2.1,1.2-4.2,1.4-6.4C127.9,45,128,43.9,128.1,42.3 M206,45.9c0.1,1.9,0.2,3.4,0.3,4.9c0,0.5,0.2,0.9,0.3,1.3
		c0.3,1.4,0.7,2.8,1.7,3.9c1.2,1.5,2.5,1.6,4.1,0.7c0.6-0.3,1.2-0.9,1.6-1.4c0.6-0.8,1.1-1.7,1.4-2.6c1-2.2,1.4-4.6,1.6-7
		c0.2-2,0.2-4,0-6.1c-0.1-0.8-0.2-1.6-0.3-2.4c-0.2-1.3-0.6-2.5-1.4-3.5c-0.5-0.7-1.2-1.3-2.1-1.5c-1.5-0.4-2.8,0.1-3.9,1.1
		c-0.8,0.8-1.4,1.8-1.8,2.8c-0.6,1.5-1,3.1-1.1,4.7C206.2,42.7,206.1,44.5,206,45.9 M160.5,42.1c-0.1-1.1-0.1-2.2-0.2-3.4
		c0-0.4-0.1-0.8-0.2-1.2c-0.2-1.4-0.6-2.7-1.4-3.8c-0.5-0.7-1.2-1.2-2.1-1.3c-1.3-0.2-2.4,0.1-3.3,0.9c-0.6,0.5-1.1,1.2-1.5,1.8
		c-1.3,2.1-1.8,4.5-2.2,6.8c-0.2,1.1-0.2,2.3-0.2,3.4c-0.1,2.1,0,4.1,0.4,6.1c0.2,1.3,0.6,2.5,1.2,3.7c0.4,0.7,0.8,1.3,1.5,1.8
		c0.5,0.3,0.9,0.5,1.5,0.5c1.1-0.1,2-0.5,2.8-1.3c0.9-0.9,1.6-2,2.1-3.3c0.9-2.3,1.3-4.7,1.6-7.1C160.4,44.5,160.4,43.3,160.5,42.1
		 M161.3,65.1c-2.4,1.9-6.4,6.4-7.8,8.8c-0.5,0.9-1,1.9-1.4,2.9c-0.4,1.1-0.6,2.2-0.5,3.3c0.2,2,1.7,3.5,3.7,3.4
		c1.6-0.1,2.9-0.8,3.7-2.2c0.6-1,1-2.2,1.3-3.3c0.3-1.8,0.7-3.5,0.8-5.3C161.2,70.2,161.2,67.6,161.3,65.1"/>
	<path class="st3" d="M4.9,28.1c0.7-4.3,2.6-8,5.2-11.4c2.2-2.8,4.8-5.1,7.9-6.7c1.2-0.6,2.5-0.7,3.8-0.5c1.2,0.2,2.2,0.6,3.2,1.3
		c0.8,0.5,1.1,1.2,1.1,2.1c0,12.2,0,24.4,0,36.6c0,2-0.1,4-0.3,6c-0.2,2.6-0.9,5.1-2.2,7.5c-1.1,2-2.6,3.5-4.7,4.6
		c-0.5,0.2-1,0.4-1.5,0.5c-0.6,0.1-0.9-0.2-0.9-0.9c0-0.4,0.1-0.8,0.2-1.2c0.3-1.4,0.8-2.7,1-4.1c0.2-1,0.3-2.1,0.4-3.1
		c0.1-1.7,0.2-3.3,0.2-5c0.1-12.5,0.1-25,0.2-37.5c0-0.4,0-0.9,0-1.3c0-0.3-0.1-0.5-0.2-0.9c-0.4,0.3-0.7,0.4-0.9,0.7
		c-0.8,0.9-1.7,1.8-2.4,2.9c-2.6,4-3.9,8.3-4,13.1c0,2.8,0.6,5.4,2.2,7.8c0.2,0.3,0.4,0.7,0.5,1c0.2,0.7-0.2,1.1-0.9,1.2
		c-0.6,0-1.2-0.1-1.7-0.4c-3.4-1.6-5.5-4.2-6.3-7.9c-0.1-0.3-0.2-0.6-0.3-0.9v-2.2C4.7,28.8,4.8,28.5,4.9,28.1"/>
</g>
<g class="st2">
	<path class="st4" d="M77.6,38.5h27.1v5H94V72h-5.8V43.6H77.5L77.6,38.5L77.6,38.5z M103.5,47.7h5v4.7h0.1c0.2-0.7,0.5-1.3,0.9-1.9
		s1-1.2,1.7-1.7c0.6-0.5,1.3-0.9,2.1-1.2c0.8-0.3,1.6-0.5,2.4-0.5c0.6,0,1.1,0,1.3,0c0.2,0,0.5,0.1,0.7,0.1v5.1
		c-0.4-0.1-0.8-0.1-1.2-0.2c-0.4,0-0.8-0.1-1.2-0.1c-0.9,0-1.7,0.2-2.5,0.5c-0.8,0.4-1.5,0.9-2.1,1.6c-0.6,0.7-1.1,1.6-1.4,2.6
		c-0.4,1-0.5,2.2-0.5,3.6v11.5h-5.4L103.5,47.7L103.5,47.7z M142.2,72h-5.3v-3.4h-0.1c-0.7,1.2-1.7,2.2-2.9,2.9s-2.6,1.1-4,1.1
		c-3.2,0-5.5-0.8-6.9-2.4c-1.4-1.6-2.1-4-2.1-7.1V47.7h5.4v14.9c0,2.1,0.4,3.7,1.2,4.5c0.8,0.9,2,1.3,3.4,1.3c1.1,0,2.1-0.2,2.8-0.5
		s1.4-0.8,1.8-1.4c0.5-0.6,0.8-1.3,1-2.1c0.2-0.8,0.3-1.7,0.3-2.6V47.7h5.4L142.2,72L142.2,72z M151.3,64.2c0.2,1.6,0.8,2.6,1.8,3.3
		c1,0.6,2.3,0.9,3.7,0.9c0.5,0,1.1,0,1.7-0.1c0.6-0.1,1.2-0.2,1.8-0.4c0.6-0.2,1-0.5,1.4-1c0.4-0.4,0.5-1,0.5-1.7
		c0-0.7-0.3-1.2-0.8-1.7c-0.5-0.4-1.1-0.8-1.8-1.1c-0.7-0.3-1.6-0.5-2.5-0.7c-0.9-0.2-1.9-0.4-2.9-0.6c-1-0.2-2-0.5-2.9-0.8
		c-0.9-0.3-1.7-0.7-2.5-1.3c-0.7-0.5-1.3-1.2-1.7-2.1c-0.4-0.8-0.7-1.8-0.7-3.1c0-1.3,0.3-2.4,1-3.3c0.6-0.9,1.5-1.6,2.5-2.1
		c1-0.5,2.1-0.9,3.3-1.2s2.4-0.3,3.4-0.3c1.2,0,2.5,0.1,3.6,0.4c1.1,0.3,2.2,0.7,3.1,1.3c0.9,0.6,1.7,1.4,2.3,2.3
		c0.6,0.9,1,2.1,1.2,3.4h-5.6c-0.3-1.3-0.8-2.1-1.7-2.6c-0.9-0.4-2-0.7-3.2-0.7c-0.4,0-0.8,0-1.3,0.1c-0.5,0.1-1,0.2-1.5,0.4
		c-0.4,0.2-0.8,0.4-1.2,0.8c-0.3,0.3-0.5,0.8-0.5,1.3c0,0.7,0.2,1.2,0.7,1.6c0.4,0.4,1,0.7,1.8,1c0.7,0.3,1.6,0.5,2.5,0.7
		s1.9,0.4,2.9,0.6c1,0.2,1.9,0.5,2.9,0.8c0.9,0.3,1.8,0.7,2.5,1.3c0.7,0.5,1.3,1.2,1.8,2c0.4,0.8,0.7,1.8,0.7,3c0,1.4-0.3,2.6-1,3.7
		c-0.7,1-1.5,1.8-2.5,2.5s-2.2,1.1-3.5,1.4c-1.3,0.3-2.5,0.4-3.8,0.4c-1.5,0-2.9-0.2-4.2-0.5c-1.3-0.4-2.5-0.9-3.4-1.6
		c-0.9-0.7-1.7-1.6-2.2-2.6c-0.5-1-0.8-2.3-0.9-3.7L151.3,64.2L151.3,64.2L151.3,64.2z M168.9,47.7h4.1v-7.3h5.4v7.3h4.8v4h-4.8
		v12.9c0,0.6,0,1,0.1,1.5c0,0.4,0.2,0.8,0.3,1c0.2,0.3,0.4,0.5,0.8,0.6c0.4,0.1,0.8,0.2,1.4,0.2c0.4,0,0.8,0,1.1,0
		c0.4,0,0.8-0.1,1.1-0.2v4.1c-0.6,0.1-1.2,0.1-1.7,0.2c-0.6,0.1-1.1,0.1-1.7,0.1c-1.4,0-2.5-0.1-3.4-0.4c-0.8-0.3-1.5-0.7-2-1.2
		c-0.5-0.5-0.8-1.2-1-1.9c-0.2-0.8-0.3-1.7-0.3-2.7V51.7h-4.1L168.9,47.7L168.9,47.7L168.9,47.7z M186.9,47.7h5V51h0.1
		c0.8-1.4,1.8-2.4,3.1-3c1.3-0.6,2.8-0.9,4.4-0.9c1.9,0,3.6,0.3,5,1c1.4,0.7,2.6,1.6,3.5,2.8c0.9,1.2,1.7,2.5,2.1,4.1
		c0.4,1.6,0.7,3.3,0.7,5c0,1.7-0.2,3.2-0.6,4.7c-0.4,1.5-1.1,2.9-1.9,4.1s-1.9,2.1-3.3,2.8c-1.3,0.7-2.9,1.1-4.6,1.1
		c-0.8,0-1.6-0.1-2.3-0.2c-0.8-0.1-1.5-0.4-2.2-0.7c-0.7-0.3-1.4-0.7-2-1.2c-0.6-0.5-1.1-1.1-1.5-1.7h-0.1v12.1H187L186.9,47.7
		L186.9,47.7z M205.6,59.9c0-1.1-0.1-2.1-0.4-3.2c-0.3-1-0.7-1.9-1.3-2.7c-0.6-0.8-1.3-1.4-2.1-1.9c-0.8-0.5-1.8-0.7-2.9-0.7
		c-2.2,0-3.9,0.8-5.1,2.3c-1.1,1.6-1.7,3.7-1.7,6.2c0,1.2,0.1,2.4,0.4,3.4c0.3,1,0.7,1.9,1.3,2.7c0.6,0.8,1.3,1.3,2.1,1.8
		s1.8,0.7,2.9,0.7c1.2,0,2.2-0.3,3.1-0.8c0.8-0.5,1.5-1.2,2.1-1.9c0.5-0.8,0.9-1.7,1.2-2.7C205.5,62,205.6,60.9,205.6,59.9
		L205.6,59.9z M215,38.5h5.4v5H215V38.5z M215,47.7h5.4V72H215V47.7L215,47.7z M225.1,38.5h5.4V72h-5.4V38.5L225.1,38.5z
		 M246.8,72.6c-1.9,0-3.7-0.3-5.2-1c-1.5-0.7-2.8-1.5-3.8-2.6c-1-1.1-1.8-2.5-2.4-4.1c-0.5-1.6-0.8-3.3-0.8-5.1s0.3-3.5,0.8-5.1
		c0.5-1.6,1.3-2.9,2.4-4.1c1-1.1,2.3-2,3.8-2.6c1.5-0.6,3.3-1,5.2-1s3.7,0.3,5.2,1c1.5,0.6,2.8,1.5,3.8,2.6c1,1.1,1.8,2.5,2.4,4.1
		c0.5,1.6,0.8,3.3,0.8,5.1c0,1.9-0.3,3.6-0.8,5.1c-0.6,1.6-1.3,2.9-2.4,4.1c-1,1.1-2.3,2-3.8,2.6S248.8,72.6,246.8,72.6L246.8,72.6z
		 M246.8,68.4c1.2,0,2.2-0.3,3.1-0.8c0.9-0.5,1.6-1.2,2.1-2c0.6-0.8,1-1.7,1.2-2.7c0.3-1,0.4-2.1,0.4-3.1c0-1-0.1-2.1-0.4-3.1
		c-0.3-1-0.7-1.9-1.2-2.7c-0.6-0.8-1.3-1.4-2.1-1.9c-0.9-0.5-1.9-0.8-3.1-0.8s-2.2,0.3-3.1,0.8c-0.9,0.5-1.6,1.2-2.1,1.9
		c-0.6,0.8-1,1.7-1.2,2.7c-0.3,1-0.4,2.1-0.4,3.1c0,1.1,0.1,2.1,0.4,3.1c0.3,1,0.7,1.9,1.2,2.7c0.6,0.8,1.3,1.5,2.1,2
		C244.6,68.2,245.7,68.4,246.8,68.4L246.8,68.4z M260.7,47.7h4.1v-7.3h5.4v7.3h4.8v4h-4.8v12.9c0,0.6,0,1,0.1,1.5
		c0,0.4,0.2,0.8,0.3,1c0.2,0.3,0.4,0.5,0.8,0.6c0.4,0.1,0.8,0.2,1.4,0.2c0.4,0,0.8,0,1.1,0c0.4,0,0.8-0.1,1.1-0.2v4.1
		c-0.6,0.1-1.2,0.1-1.7,0.2c-0.6,0.1-1.1,0.1-1.7,0.1c-1.4,0-2.5-0.1-3.4-0.4s-1.5-0.7-2-1.2c-0.5-0.5-0.8-1.2-1-1.9
		c-0.2-0.8-0.3-1.7-0.3-2.7V51.7h-4.1V47.7L260.7,47.7L260.7,47.7z"/>
	<path class="st5" d="M71.3,38.5H46.8l-7.5-23.3l-7.6,23.3l-24.5,0L27,52.9l-7.6,23.3l19.8-14.4l19.8,14.4l-7.5-23.3L71.3,38.5z"/>
	<path class="st6" d="M53.2,58.1l-1.7-5.3l-12.2,8.9L53.2,58.1z"/>
</g>
<g id="g832" transform="matrix(1.6409947,0,0,1.6106094,35.464573,119.47579)" class="st2">
	<path id="path815" class="st7" d="M123.4-51.8c-0.6-1.4-1.5-2.6-2.6-3.7c-0.2-0.2-0.4-0.4-0.7-0.6c-0.2-0.1-0.4-0.3-0.6-0.4h0
		l-0.1,0c-0.2-0.1-0.4-0.2-0.7-0.3h-0.1c-0.6-0.2-1.2-0.3-1.8-0.3h-0.3c-0.7,0-1.3,0.2-1.9,0.5c-0.7,0.4-1.3,0.8-1.9,1.4h0l0,0
		c0,0,0,0-0.1,0.1l-0.1,0.1c-0.4,0.4-0.8,0.8-1.2,1.2l-0.3,0.3c-0.4,0.4-0.8,0.8-1.2,1.2c0.1-2.1,0.3-4.4,0.4-6.5
		c0-0.3,0-0.6,0.1-0.8c0.1-1,0.1-1.9,0.1-2.9v-0.2c-0.1-1.1-0.1-2.7-1.2-4.1c-0.8-1-2.4-2.3-5.4-2.3c-0.7,0-1.4,0.1-2.1,0.2
		c-1.1,0.2-2.2,0.4-3.3,0.8c-3.4,1.1-5.3,2.8-5.8,5.2c-0.4,1.7,0.3,3.3,0.7,4.3l0.1,0.2c0.4,0.9,0.8,1.7,1.3,2.6l0.4,0.7
		c1,1.9,2.1,3.8,3.2,5.7l-1.6-0.6l-0.4-0.1c-0.6-0.2-1.1-0.4-1.6-0.6l-0.1,0l-0.1,0h-0.1c-0.7-0.3-1.5-0.4-2.3-0.4h-0.1
		c-0.6,0-1.2,0.1-1.8,0.4c-0.6,0.3-1.2,0.7-1.7,1.2c-0.2,0.2-0.3,0.4-0.4,0.6l0,0l0,0.1c-0.3,0.4-0.5,0.9-0.7,1.4v0
		c-0.5,1.4-0.7,2.9-0.7,4.4c-1.5-5.7-6.2-9.9-11.8-9.9c-2,0-4,0.6-5.8,1.6c-2-1.7-5-1.8-7.1-0.2v-3c-0.1-3.1-2.6-5.6-5.7-5.7
		c-3.2,0-5.8,2.6-5.7,5.8v6.2c-0.1-0.2-0.3-0.4-0.5-0.5c-1.7-1.7-3.7-3-6-3.7c-2.3-0.7-4.8-0.6-7.1,0h-0.1c-1.9,0.5-3.6,1.4-5,2.7
		c-0.9-2-2.9-3.2-5.1-3.2c-0.5,0-1.1,0.1-1.6,0.2c-2.8,0.9-4,3.6-4.7,5.3c-0.1,0.2-0.1,0.3-0.2,0.4c-0.2,0.4-0.3,0.8-0.5,1.1
		c-0.1,0.3-0.3,0.6-0.4,0.9c-0.1,0.2-0.1,0.4-0.2,0.6c-0.5-1-1-1.9-1.4-2.9l-0.3-0.6c-0.7-1.5-1.8-3.8-4.5-4.7
		C10-53.7,7.1-52.3,6-49.7c-1.3,3.1,0.3,5.7,1.2,7.2c0.6,1,1.4,2.4,2.1,3.8c0.3,0.6,0.4,0.8,1.1,2.2l0.1,0.2l0.9,1.7
		c0.2,0.4,0.4,0.8,0.7,1.4c0.3,0.6,0.6,1.2,1,1.9c-0.1,0.1-0.1,0.2-0.2,0.3L12.9-31l-0.1,0c-0.6-0.3-1.2-0.5-1.8-0.6
		c-0.4-0.1-0.9-0.2-1.3-0.2c-2,0-3.9,1.1-4.9,2.8c-1,1.7-1,3.9,0.1,5.6c1.7,2.8,5.2,3.9,7.9,3.9c0.7,0,1.4-0.1,2.1-0.2
		c6.1-1.3,8.7-7.2,10.6-11.4l0.4-0.9c0.4-0.9,0.8-1.8,1.2-2.7l0.4-0.8c0.4,1.2,1,2.4,1.7,3.5c0.5,0.7,1,1.3,1.5,1.9
		c0.6,0.6,1.2,1.1,1.8,1.6c0.7,0.5,1.4,0.9,2.1,1.2c0.8,0.4,1.5,0.6,2.4,0.8c0.5,0.1,1,0.2,1.5,0.3c0.5,0,0.9,0.1,1.4,0.1h0.4
		c1.7,0,3.4-0.3,4.9-0.9c0.7-0.2,1.4-0.6,2.1-0.9c1.2-0.7,2.2-1.7,2.8-2.9c0.4,2.9,2.8,5,5.7,5c1.2,0,2.4-0.4,3.4-1.1v1.8
		c0,3.2,2.6,5.7,5.7,5.7c3.2,0,5.7-2.6,5.7-5.7v-1.6c1.2,0.4,2.5,0.6,3.8,0.6c6.7,0,12.2-6,12.2-13.4c0.1,0.4,0.3,0.9,0.6,1.3
		c0.4,0.6,0.8,1.1,1.4,1.4c0.8,0.5,1.7,0.8,2.7,0.9H92c0.8,0,1.5-0.1,2.2-0.3h0.1l3.1-0.7c-0.5,0.7-1,1.3-1.4,2l-0.3,0.4
		c-0.4,0.5-0.7,1-1,1.4l-0.1,0.1l-0.1,0.1l0,0v0c-0.5,0.7-0.8,1.4-1,2.1c-0.2,0.6-0.3,1.3-0.2,2c0.1,0.7,0.3,1.3,0.7,1.9v0
		c0.1,0.2,0.3,0.4,0.4,0.6l0,0l0,0c0.2,0.2,0.3,0.4,0.5,0.5c0.2,0.2,0.4,0.4,0.7,0.6c1.1,0.8,2.4,1.4,3.7,1.8
		c1.1,0.4,2.3,0.6,3.4,0.7h0.3c0.2,0,0.4,0,0.6,0c0.2,0,0.5-0.1,0.7-0.1h0.1c0.2-0.1,0.5-0.1,0.7-0.2h0c0.6-0.2,1.2-0.6,1.7-1.1
		c0.5-0.5,0.8-1,1.1-1.7c0.3-0.7,0.4-1.5,0.5-2.3v-0.1c0,0,0-0.1,0-0.1v-0.1c0-0.6,0.1-1.1,0.1-1.7V-31l0.2,0.4l0.2,0.4
		c0.3,0.6,0.6,1,0.8,1.5l0.1,0.1l0.1,0.1v0l0,0c0.4,0.7,1,1.3,1.6,1.8c0.5,0.5,1.1,0.8,1.7,1h0c0.5,0.2,1,0.3,1.5,0.3
		c0.2,0,0.3,0,0.5,0h0.1c0.2,0,0.5-0.1,0.7-0.1h0.1c0.2-0.1,0.5-0.1,0.7-0.2c0.3-0.1,0.5-0.2,0.8-0.4c1-0.6,2-1.3,2.8-2.1
		c1-0.9,1.8-2,2.5-3.2c0.3-0.5,0.5-1,0.6-1.5V-33c0.1-0.2,0.1-0.5,0.1-0.7v-0.1c0.1-0.7,0-1.4-0.2-2c-0.2-0.6-0.6-1.2-1-1.7
		c-0.6-0.6-1.2-1.1-1.9-1.5h0l0,0l-0.1-0.1l-0.1-0.1c-0.5-0.3-1-0.6-1.5-0.8l-0.4-0.2c-0.7-0.4-1.4-0.8-2.1-1.1l3.1-0.7h0.1
		c0.9-0.2,1.7-0.5,2.5-0.9c0.9-0.4,1.6-1.1,2.1-2c0.3-0.6,0.5-1.2,0.6-1.9C124.8-48.9,124-50.7,123.4-51.8L123.4-51.8z"/>
	<path id="path817" class="st8" d="M99.9-40.6l1.9-0.4c0,0,0.1,0,0.2,0c1.1-0.3,1.7-1.4,1.5-2.5l0,0c-0.1-0.3-0.2-0.5-0.3-0.7
		c-0.2-0.3-0.5-0.5-0.8-0.7c-0.3-0.2-0.7-0.4-1.1-0.5l-2.1-0.8c-1.2-0.4-2.3-0.8-3.5-1.3c-0.8-0.3-1.4-0.5-2-0.7
		c-0.1,0-0.2-0.1-0.3-0.1c-0.7-0.2-1.1-0.3-1.5-0.3c-0.3,0-0.5,0-0.8,0.1c-0.3,0.1-0.5,0.3-0.7,0.5c-0.1,0.1-0.2,0.2-0.3,0.3
		c-0.2,0.2-0.3,0.5-0.4,0.8c-0.4,1.1-0.6,2.3-0.6,3.5c0,1.1,0,2.5,0.6,3.4c0.1,0.2,0.3,0.4,0.6,0.6c0.4,0.3,0.8,0.3,1.3,0.4
		c0.7,0,1.3-0.1,1.9-0.3L99.9-40.6L99.9-40.6z M120.9-50.6c-0.5-1.1-1.2-2.1-2-2.9c-0.1-0.1-0.2-0.2-0.3-0.3
		c-0.1-0.1-0.2-0.2-0.4-0.2c-0.1-0.1-0.3-0.1-0.4-0.2c-0.3-0.1-0.5-0.1-0.8-0.1c-0.3,0-0.5,0.1-0.8,0.2c-0.4,0.2-0.7,0.5-1.3,0.9
		c-0.1,0.1-0.2,0.2-0.2,0.2c-0.4,0.4-0.9,0.9-1.5,1.5c-0.9,0.9-1.7,1.8-2.6,2.7l-1.5,1.6c-0.3,0.3-0.5,0.6-0.8,0.9
		c-0.2,0.3-0.3,0.6-0.4,0.9c0,0.3,0,0.5,0,0.8l0,0c0.3,1.1,1.3,1.8,2.4,1.6c0.1,0,0.1,0,0.2,0l8.1-1.9c0.6-0.1,1.3-0.3,1.9-0.6
		c0.4-0.2,0.8-0.4,1-0.9c0.1-0.2,0.2-0.5,0.2-0.8C121.9-48.4,121.3-49.6,120.9-50.6L120.9-50.6z M106.4-47.2
		c0.6-0.7,0.6-1.8,0.6-2.7c0.2-3,0.4-6,0.5-9c0.1-1.1,0.2-2.3,0.1-3.4c-0.1-0.9-0.1-2-0.7-2.8c-1.1-1.4-3.3-1.3-4.8-1
		c-0.5,0.1-0.9,0.2-1.4,0.3c-0.5,0.1-0.9,0.2-1.4,0.4c-1.5,0.5-3.5,1.4-3.9,3.1c-0.2,1,0.3,1.9,0.6,2.8c0.4,1.1,1,2,1.6,3
		c1.5,2.6,2.9,5.3,4.4,7.9c0.4,0.8,0.9,1.8,1.8,2.2c0.1,0,0.1,0,0.2,0.1c0.4,0.1,0.8,0.2,1.2,0.1l0.1,0c0.4-0.1,0.7-0.3,1-0.6
		C106.3-47.1,106.3-47.1,106.4-47.2L106.4-47.2z M105.7-39.1c-0.5-0.7-1.3-0.9-2.1-0.7c-0.1,0-0.2,0.1-0.3,0.1
		c-0.1,0.1-0.3,0.1-0.4,0.2c-0.3,0.3-0.6,0.6-0.9,0.9c-0.1,0.1-0.1,0.2-0.2,0.3l-1.3,1.8c-0.7,1-1.5,2-2.2,3
		c-0.5,0.7-0.9,1.2-1.2,1.7c-0.1,0.1-0.1,0.2-0.2,0.3c-0.4,0.6-0.6,1-0.7,1.4c-0.1,0.3-0.1,0.5-0.1,0.8c0,0.3,0.1,0.6,0.3,0.8
		c0.1,0.1,0.2,0.2,0.3,0.4c0.2,0.2,0.4,0.4,0.7,0.6c0.9,0.6,1.9,1.1,2.9,1.4c0.9,0.3,1.8,0.5,2.7,0.5c0.2,0,0.3,0,0.5,0
		c0.1,0,0.3,0,0.4-0.1c0.1,0,0.3-0.1,0.4-0.1c0.3-0.1,0.5-0.3,0.7-0.5c0.2-0.2,0.3-0.4,0.4-0.7c0.2-0.4,0.3-0.9,0.3-1.6
		c0-0.1,0-0.2,0-0.3c0.1-0.6,0.1-1.3,0.1-2.1c0.1-1.2,0.1-2.5,0.2-3.7l0.1-2.2c0-0.5,0-1.1-0.1-1.6
		C105.9-38.7,105.8-38.9,105.7-39.1L105.7-39.1z M120.4-35.6c-0.3-0.3-0.7-0.6-1.3-1c-0.1,0-0.2-0.1-0.3-0.2c-0.5-0.3-1.1-0.6-1.8-1
		c-1.1-0.6-2.2-1.2-3.3-1.8l-2-1c-0.1,0-0.2-0.1-0.3-0.1c-0.4-0.2-0.8-0.3-1.2-0.4c-0.1,0-0.3,0-0.4,0c-0.1,0-0.2,0-0.3,0
		c-0.8,0.1-1.4,0.7-1.6,1.6c0,0.2,0,0.5,0,0.7c0.1,0.5,0.3,1,0.6,1.5l1,2c0.6,1.1,1.2,2.2,1.8,3.3c0.4,0.7,0.7,1.3,1,1.8
		c0.1,0.1,0.1,0.2,0.2,0.3c0.4,0.6,0.7,1,1,1.3c0.4,0.4,1,0.6,1.5,0.5c0.1,0,0.3,0,0.4-0.1c0.3-0.1,0.6-0.2,0.8-0.3
		c0.8-0.4,1.5-1,2.2-1.6c0.8-0.8,1.5-1.6,2-2.6c0.1-0.1,0.1-0.3,0.2-0.4c0.1-0.1,0.1-0.3,0.1-0.4c0-0.1,0.1-0.3,0.1-0.4
		c0-0.3,0-0.6-0.1-0.8C120.7-35.2,120.6-35.4,120.4-35.6L120.4-35.6z"/>
	<path id="path819" class="st9" d="M53.1-54.7c0-1.6,1.3-2.9,2.9-2.9c1.6,0,2.8,1.3,2.9,3v22.9c0,1.6-1.3,2.9-2.9,2.9
		c-1.6,0-2.9-1.3-2.9-2.9c0,0,0,0,0,0V-54.7z M50.4-40.6c0,0.5-0.1,1.3-0.7,1.9c-0.6,0.7-1.5,0.8-2,0.8c-2.1,0-4.1,0-6.2,0
		c-2.1,0-4.1,0-6.2,0c0.2,0.6,0.5,1.4,1.4,2.2c0.5,0.5,1,0.7,1.2,0.9c0.2,0.2,1.1,0.6,2.2,0.6c1.1,0,2.1-0.4,3.1-0.9l0.1,0
		c0.7-0.4,1.4-0.7,2.1-0.8c0.7-0.1,1.5,0,2.1,0.5c0.7,0.6,1,1.5,0.7,2.3c-0.3,1-1.1,1.9-2,2.4c-0.5,0.3-1,0.5-1.6,0.7
		c-1.4,0.5-2.9,0.7-4.4,0.7c-0.4,0-0.7,0-1.1,0c-0.4,0-0.8-0.1-1.2-0.2c-0.6-0.1-1.2-0.3-1.8-0.6c-0.6-0.3-1.1-0.6-1.7-0.9
		c-0.5-0.4-1-0.8-1.4-1.2c-0.4-0.5-0.8-1-1.2-1.5c-1.2-1.9-1.8-4.2-1.7-6.4c0.1-2.2,0.8-4.4,2.1-6.1c0.1-0.2,0.3-0.4,0.5-0.6
		c0.1-0.1,0.1-0.2,0.2-0.2c1.6-2,3.8-2.6,4.7-2.9l0,0c1.8-0.5,3.7-0.5,5.6,0c0.4,0.1,2.9,0.9,4.7,2.9c0.1,0.1,0.3,0.4,0.7,0.8
		c0.8,1.1,1.4,2.3,1.7,3.6l0,0C50.2-42.1,50.4-41.4,50.4-40.6L50.4-40.6z M37.1-44.3c-0.9,0.7-1.5,1.7-1.8,2.9h9.9
		c-0.3-1.1-0.9-2.1-1.8-2.9c-0.9-0.7-2-1.1-3.2-1.1C39.1-45.4,38-45,37.1-44.3L37.1-44.3z M74.6-50.3c-2.6,0-4.9,1.2-6.6,3v-0.1
		c-0.1-1.6-1.4-2.8-3-2.8c-1.6,0.1-2.8,1.4-2.8,2.9v21.8c0,1.6,1.3,2.9,2.9,2.9c0,0,0,0,0,0c1.6,0,2.9-1.3,2.9-2.9c0,0,0,0,0,0v-6.8
		c1.7,1.9,4,3,6.6,3c5.2,0,9.4-4.7,9.4-10.6C84-45.6,79.8-50.3,74.6-50.3z M73.4-33.9c-2.9,0-5.3-2.6-5.3-5.8c0-3.2,2.4-5.8,5.3-5.8
		c2.9,0,5.3,2.6,5.3,5.8C78.7-36.4,76.3-33.9,73.4-33.9z M25.5-38.2l-1,2.1c-0.4,0.9-0.9,1.8-1.3,2.8l-0.4,0.9c-1.8,4-4,8.8-8.6,9.8
		c-2.3,0.5-5.7-0.2-7-2.3c-1.3-2.2,0.6-4.6,3-4.1c0.4,0.1,0.8,0.3,1.1,0.5c0.6,0.3,1.3,0.6,2,0.5c0.7-0.1,1.1-0.6,1.6-1.2
		c0.7-0.8,1-1.7,1.2-2.2l0-0.1c0,0,0-0.1,0-0.1c-0.6-1.1-1.1-2.1-1.5-2.9c-0.2-0.5-0.5-0.9-0.7-1.4l-1-1.9c-0.7-1.4-0.8-1.6-1.2-2.2
		c-0.7-1.3-1.4-2.6-2.2-3.9c-0.8-1.4-1.7-3-1-4.6c0.5-1.3,2-2,3.4-1.6c1.5,0.4,2.1,1.8,2.7,3.1c0.1,0.2,0.2,0.5,0.3,0.7
		c1,1.9,1.9,3.9,2.9,5.8c0.1,0.2,0.2,0.5,0.4,0.8c0.1,0.3,0.3,0.6,0.5,1l0.3,0.5c0.1,0.2,0.2,0.4,0.2,0.5c0.4-1.1,0.9-2.2,1.3-3.3
		c0.4-1.1,0.9-2.2,1.3-3.3c0-0.1,0.1-0.3,0.3-0.6c0.1-0.3,0.3-0.7,0.5-1.1l0.2-0.5c0.6-1.4,1.3-3.2,2.9-3.6c1.1-0.3,2.4,0.1,3.1,1.1
		c0.3,0.5,0.5,1,0.5,1.6c0,1.2-0.6,2.5-1.1,3.6c-0.1,0.3-0.2,0.5-0.3,0.8l-0.1,0.1c-0.1,0.3-0.5,1.2-1.2,2.5c-0.2,0.5-0.5,1-0.7,1.5
		L25.5-38.2z"/>
</g>
<g class="st2">
	<g id="Owl" class="st4">
		<g>
			<path class="st11" d="M38,52.3c2.4,6.5,9.6,9.8,16.1,7.4c6.5-2.4,9.8-9.6,7.4-16.1c-2.4-6.5-9.6-9.8-16.1-7.4
				C39,38.6,35.7,45.8,38,52.3z"/>
			<circle class="st11" cx="22.1" cy="47.9" r="12.5"/>
			<path d="M24.2,47.8c0,1.3-1,2.3-2.3,2.3c-1.3,0-2.3-1-2.3-2.3c0-1.3,1-2.3,2.3-2.3C23.2,45.5,24.2,46.5,24.2,47.8z"/>
			<path d="M52.1,47.8c0,1.3-1,2.3-2.3,2.3c-1.3,0-2.3-1-2.3-2.3c0-1.3,1-2.3,2.3-2.3C51,45.5,52.1,46.5,52.1,47.8z"/>
			<g>
				<path d="M15,47.8c0,3.8,3.1,6.9,6.9,6.9c3.8,0,6.9-3.1,6.9-6.9c0-3.8-3.1-6.9-6.9-6.9C18.1,40.9,15,44,15,47.8z M17.4,47.8
					c0-2.5,2-4.5,4.5-4.5c2.5,0,4.5,2,4.5,4.5c0,2.5-2,4.5-4.5,4.5C19.4,52.3,17.4,50.3,17.4,47.8z"/>
			</g>
			<g>
				<path d="M42.9,47.8c0,3.8,3.1,6.9,6.9,6.9c3.8,0,6.9-3.1,6.9-6.9c0-3.8-3.1-6.9-6.9-6.9C46,40.9,42.9,44,42.9,47.8z M45.2,47.8
					c0-2.5,2-4.5,4.5-4.5c2.5,0,4.5,2,4.5,4.5c0,2.5-2,4.5-4.5,4.5C47.3,52.3,45.2,50.3,45.2,47.8z"/>
			</g>
			<g>
				<path class="st12" d="M40.5,54.1c1.1,1.7,2.7,3.1,4.6,4c2.7,1.2,5.7,1.4,8.5,0.3c5.7-2.1,8.7-8.5,6.6-14.3
					c-2.1-5.7-8.5-8.7-14.3-6.6c-2.8,1-5,3.1-6.2,5.8c-0.8,1.8-1.1,3.8-0.9,5.7"/>
			</g>
			<path d="M60.9,39.7c0.7-2.8,2.7-5.6,2.7-5.6l-9.3,0C49.2,30.8,42.9,29,35.9,29c-7.3,0-13.8,1.8-19,5.2l-8.7,0c0,0,2,2.8,2.7,5.5
				c-1.7,2.3-2.7,5.1-2.7,8.2c0,7.7,6.2,13.9,13.9,13.9c4.4,0,8.3-2,10.8-5.2l3,4.4l3-4.5c1.3,1.7,3.1,3.1,5.1,4
				c3.4,1.6,7.2,1.7,10.6,0.4c7.2-2.7,10.9-10.7,8.2-17.9C62.4,41.9,61.7,40.7,60.9,39.7z M35.9,31.4c5,0,9.5,0.9,13.5,2.7
				c-1.5,0-2.9,0.3-4.4,0.8c-3.5,1.3-6.3,3.9-7.8,7.2c-0.7,1.5-1.1,3.1-1.2,4.8c-0.5-7.1-6.4-12.8-13.6-12.9
				C26.3,32.3,30.9,31.4,35.9,31.4z M31.3,54.1c-2,2.9-5.4,4.9-9.2,4.9C15.9,59,11,54,11,47.9c0-6.1,5-11.1,11.1-11.1
				s11.1,5,11.1,11.1c0,0.4-0.1,0.7-0.1,1.1C32.9,50.9,32.3,52.7,31.3,54.1z M53.6,58.4c-2.8,1-5.8,0.9-8.5-0.3
				c-1.9-0.9-3.5-2.3-4.6-4c-0.5-0.7-0.9-1.4-1.2-2.2C39,50.9,38.9,50,38.8,49c-0.2-1.9,0.1-3.9,0.9-5.7c1.2-2.7,3.5-4.7,6.2-5.8
				c5.7-2.1,12.1,0.8,14.3,6.6C62.3,49.9,59.4,56.3,53.6,58.4z"/>
		</g>
	</g>
	<g id="US" class="st4">
		<g>
			<g>
				<path d="M207.5,31.2c0,1.5,1.2,2.7,2.7,2.7c1.5,0,2.7-1.2,2.7-2.7c0-1.5-1.2-2.7-2.7-2.7C208.7,28.5,207.5,29.7,207.5,31.2z"/>
				<g>
					<path d="M80.1,31L76,32.4c0,0,0,4.9,0,5.3c-0.4,0-4.5,0-4.5,0v3.6c0,0,4,0,4.4,0c0,0.5,0,11.4,0,11.4c0,5.4,1.9,7.7,6.4,7.7
						c1.2,0,2.3-0.1,3.4-0.4l0.2,0l-0.1-3.7l-0.3,0.1c-0.9,0.3-1.6,0.5-2.1,0.5c-2.1,0-2.9-1.2-2.9-4.4c0,0,0-10.6,0-11
						c0.4,0,5.2,0,5.2,0v-3.6c0,0-4.8,0-5.2,0c0-0.4,0-6.8,0-6.8L80.1,31z"/>
					<path d="M94.1,41.3c0-1.3,0-3.6,0-3.6H90V60h4.5V48.8c0-4.7,2-7.3,5.5-7.3c0.5,0,1,0.1,1.6,0.3l0.3,0.1l0.1-4.4l-1.9-0.1
						C97.6,37.3,95.5,38.8,94.1,41.3z"/>
					<g>
						<path d="M126.3,37.2c-3.1,0-5.7,1.5-7.4,4.1c0-1.1,0-3.6,0-3.6h-4.1v31.3h4.5c0,0,0-10.9,0-12.1c1.6,2.2,4,3.4,6.9,3.4
							c5.7,0,9.4-4.7,9.4-11.9C135.6,41.7,131.9,37.2,126.3,37.2z M125.1,56.7c-3.6,0-5.8-3.1-5.8-8c0-4.7,2.3-7.8,6-7.8
							c3.5,0,5.6,2.9,5.6,7.7C130.8,53.6,128.6,56.7,125.1,56.7z"/>
					</g>
				</g>
				<g>
					<g>
						<path d="M148.8,37.2c-2.8,0-5.2,0.5-7.4,1.6l-0.1,0.1l0,3.9l0.4-0.2c2.1-1.2,4.1-1.8,6-1.8c3.3,0,5.1,1.9,5.1,5.1
							c0,0,0,0.1,0,0.2c-0.4,0-2.6,0-2.6,0c-7.4,0-11.5,2.7-11.5,7.6c0,3.9,3,6.7,7.2,6.7c3.1,0,5.5-1.2,7.2-3.5c0,0.9,0,3.2,0,3.2
							h4.1V46.5C157.1,40.3,154.3,37.2,148.8,37.2z M152.7,50.6c0,3.8-2.3,6.3-5.9,6.3c-2.2,0-3.7-1.4-3.7-3.5
							c0-2.7,2.6-4.2,7.3-4.2c0,0,1.9,0,2.3,0C152.7,49.6,152.7,50.6,152.7,50.6z"/>
					</g>
					<g>
						<path d="M176.3,27.1c0,0,0,12.4,0,13.6c-1.7-2.3-4-3.5-7-3.5c-5.5,0-9.2,4.5-9.2,11.3c0,7,3.8,11.8,9.1,11.8
							c3.2,0,5.7-1.4,7.4-4.2c0,1.1,0,3.8,0,3.8h4.2V27.1H176.3z M170.4,56.6c-3.4,0-5.6-3-5.6-7.8c0-4.8,2.2-8,5.5-8c3.7,0,6,3,6,8
							C176.3,53.5,174,56.6,170.4,56.6z"/>
					</g>
					<path d="M201,37.7l-6.4,12.9l-5.9-12.9h-5.1L194.5,60l11.2-22.3C205.7,37.7,201,37.7,201,37.7z"/>
					<path d="M212.2,37.7H208V60h4.5V37.7H212.2z"/>
					<path d="M217.8,43.4c0,3.1,2.2,4.8,6.1,6.7c2.5,1.2,3.8,2,3.8,3.7c0,1.8-1.6,2.9-4.1,2.9c-1.8,0-3.7-0.5-5.7-1.4l-0.3-0.2
						l-0.1,3.9l0.2,0.1c1.9,0.7,3.8,1.1,5.8,1.1c5.5,0,9.1-2.6,9.1-6.7c0-3.4-2.3-5.1-6.2-6.9c-2.9-1.3-4.1-2.1-4.1-3.6
						c0-1.4,1.3-2.2,3.4-2.2c1.9,0,3.7,0.4,5.4,1.2l0.3,0.2l0.2-3.8l-0.2-0.1c-1.9-0.6-3.7-0.8-5.5-0.8
						C221.1,37.5,217.8,39.9,217.8,43.4z"/>
					<g>
						<path d="M246.6,37.2c-6.8,0-11,4.5-11,11.7c0,7.2,4.2,11.6,11,11.6c6.8,0,11-4.5,11-11.6C257.7,41.7,253.4,37.2,246.6,37.2z
							 M246.6,56.8c-3.7,0-6.3-3.2-6.3-8c0-4.8,2.5-8,6.3-8c3.8,0,6.3,3.2,6.3,8C252.9,53.7,250.5,56.8,246.6,56.8z"/>
					</g>
					<path d="M266,41.3c0-1.3,0-3.6,0-3.6h-4.1V60h4.5V48.8c0-4.7,2-7.3,5.5-7.3c0.5,0,1,0.1,1.6,0.3l0.3,0.1l0.1-4.4l-1.9-0.1
						C269.4,37.3,267.3,38.8,266,41.3z"/>
				</g>
				<path d="M110.2,37.7h-4.3V60h4.5V37.7H110.2z"/>
				<path d="M105.5,31.2c0,1.5,1.2,2.7,2.7,2.7c1.5,0,2.7-1.2,2.7-2.7c0-1.5-1.2-2.7-2.7-2.7C106.7,28.5,105.5,29.7,105.5,31.2z"/>
			</g>
		</g>
	</g>
</g>
<g class="st2">
	<g class="st4">
		<g>
			<path class="st13" d="M126.5,53.5L126.5,53.5l-3.8-14.9h-4.5l-3.8,14.8h-0.1L111,38.5h-4.8l5.7,21.7h4.8l3.6-14.8h0.1l3.7,14.8
				h4.7l5.8-21.7h-4.7L126.5,53.5z M149.3,45.9c-0.4-0.6-1-1-1.7-1.3c-0.7-0.3-1.7-0.5-2.8-0.5c-0.8,0-1.6,0.2-2.5,0.6
				c-0.8,0.4-1.5,1.1-2.1,2H140v-8.2h-4.3v21.7h4.3V52c0-1.6,0.3-2.7,0.8-3.4c0.5-0.7,1.4-1,2.6-1c1,0,1.7,0.3,2.2,1
				c0.4,0.6,0.6,1.6,0.6,2.9v8.9h4.3v-9.7c0-1-0.1-1.9-0.3-2.7C150,47.1,149.7,46.4,149.3,45.9z M167,56.7v-8.2c0-1-0.2-1.7-0.6-2.3
				c-0.4-0.6-1-1-1.6-1.4c-0.7-0.3-1.4-0.5-2.2-0.7c-0.8-0.1-1.6-0.2-2.4-0.2c-0.9,0-1.7,0.1-2.6,0.3c-0.9,0.2-1.6,0.5-2.3,0.9
				c-0.7,0.4-1.3,0.9-1.7,1.6c-0.4,0.7-0.7,1.5-0.8,2.5h4.3c0.1-0.9,0.4-1.5,0.9-1.8c0.5-0.4,1.2-0.5,2-0.5c0.4,0,0.7,0,1.1,0.1
				c0.3,0.1,0.6,0.2,0.9,0.3c0.3,0.2,0.5,0.4,0.6,0.6c0.2,0.3,0.2,0.6,0.2,1.1c0,0.4-0.1,0.8-0.4,1c-0.3,0.2-0.7,0.4-1.2,0.5
				c-0.5,0.1-1,0.2-1.7,0.3c-0.6,0.1-1.3,0.1-1.9,0.2c-0.6,0.1-1.3,0.2-1.9,0.4c-0.6,0.2-1.2,0.4-1.7,0.8c-0.5,0.3-0.9,0.8-1.2,1.4
				c-0.3,0.6-0.5,1.3-0.5,2.2c0,0.8,0.1,1.5,0.4,2.1c0.3,0.6,0.7,1.1,1.1,1.5c0.5,0.4,1.1,0.7,1.7,0.9c0.6,0.2,1.3,0.3,2.1,0.3
				c1,0,1.9-0.1,2.9-0.4c0.9-0.3,1.7-0.8,2.4-1.5c0,0.3,0.1,0.5,0.1,0.8c0.1,0.3,0.1,0.5,0.2,0.7h4.4c-0.2-0.3-0.3-0.8-0.4-1.5
				C167.1,58.1,167,57.4,167,56.7z M162.7,54.1c0,0.2,0,0.6-0.1,1c0,0.4-0.2,0.8-0.4,1.2c-0.2,0.4-0.6,0.7-1,1
				c-0.5,0.3-1.1,0.4-2,0.4c-0.3,0-0.7,0-1-0.1c-0.3-0.1-0.6-0.2-0.9-0.3c-0.2-0.2-0.4-0.4-0.6-0.6c-0.1-0.3-0.2-0.6-0.2-1
				c0-0.4,0.1-0.7,0.2-1c0.1-0.3,0.3-0.5,0.6-0.7c0.2-0.2,0.5-0.3,0.8-0.4c0.3-0.1,0.6-0.2,1-0.2c0.3-0.1,0.7-0.1,1-0.2
				c0.3,0,0.7-0.1,1-0.2c0.3-0.1,0.6-0.1,0.9-0.2c0.3-0.1,0.5-0.2,0.7-0.4L162.7,54.1L162.7,54.1z M175.1,39.8h-4.3v4.7h-2.6v2.9
				h2.6v9.3c0,0.8,0.1,1.4,0.4,1.9c0.3,0.5,0.6,0.9,1.1,1.1c0.5,0.3,1,0.4,1.6,0.5c0.6,0.1,1.2,0.1,1.9,0.1c0.4,0,0.9,0,1.3,0
				c0.4,0,0.8-0.1,1.2-0.1v-3.3c-0.2,0-0.4,0.1-0.6,0.1c-0.2,0-0.5,0-0.7,0c-0.7,0-1.2-0.1-1.5-0.4c-0.2-0.2-0.4-0.7-0.4-1.5v-7.8
				h3.2v-2.9h-3.2L175.1,39.8L175.1,39.8z M192.9,53.3c-0.3-0.5-0.7-0.9-1.1-1.2c-0.5-0.3-1-0.6-1.6-0.8c-0.6-0.2-1.2-0.4-1.8-0.5
				c-0.6-0.1-1.2-0.3-1.8-0.4c-0.6-0.1-1.1-0.3-1.6-0.4c-0.5-0.2-0.8-0.3-1.1-0.6s-0.4-0.6-0.4-0.9c0-0.3,0.1-0.6,0.2-0.8
				c0.2-0.2,0.4-0.3,0.6-0.4c0.2-0.1,0.5-0.2,0.8-0.2c0.3,0,0.5,0,0.8,0c0.8,0,1.4,0.1,2,0.4c0.6,0.3,0.9,0.9,0.9,1.7h4.1
				c-0.1-1-0.3-1.8-0.7-2.4c-0.4-0.6-0.9-1.1-1.6-1.5c-0.6-0.4-1.3-0.7-2.1-0.8c-0.8-0.2-1.6-0.2-2.5-0.2c-0.9,0-1.7,0.1-2.5,0.2
				c-0.8,0.2-1.5,0.4-2.2,0.8c-0.6,0.4-1.2,0.9-1.6,1.5c-0.4,0.6-0.6,1.5-0.6,2.5c0,0.7,0.1,1.3,0.4,1.7c0.3,0.5,0.7,0.9,1.1,1.2
				c0.5,0.3,1,0.6,1.6,0.8c0.6,0.2,1.2,0.4,1.8,0.5c1.5,0.3,2.7,0.6,3.6,1c0.9,0.3,1.3,0.8,1.3,1.5c0,0.4-0.1,0.7-0.3,1
				c-0.2,0.3-0.4,0.5-0.7,0.6c-0.3,0.2-0.6,0.3-0.9,0.3c-0.3,0.1-0.7,0.1-1,0.1c-0.4,0-0.8-0.1-1.2-0.2c-0.4-0.1-0.7-0.3-1-0.5
				c-0.3-0.2-0.6-0.5-0.7-0.8c-0.2-0.3-0.3-0.7-0.3-1.2h-4.1c0,1.1,0.3,1.9,0.7,2.6c0.4,0.7,1,1.3,1.7,1.7c0.7,0.4,1.5,0.7,2.3,0.9
				c0.9,0.2,1.8,0.3,2.7,0.3c0.9,0,1.8-0.1,2.6-0.3c0.9-0.2,1.6-0.5,2.3-0.9c0.7-0.4,1.2-1,1.6-1.7c0.4-0.7,0.6-1.6,0.6-2.6
				C193.3,54.4,193.2,53.8,192.9,53.3z M201.5,38.5l-8.2,21.7h4.8l1.7-4.8h8.1l1.6,4.8h4.9l-8.1-21.7
				C206.4,38.5,201.5,38.5,201.5,38.5z M201,51.8l2.8-8h0.1l2.7,8H201z M229.4,46.6c-0.6-0.8-1.3-1.4-2.2-1.9
				c-0.9-0.5-2-0.7-3.2-0.7c-1,0-1.9,0.2-2.7,0.6c-0.8,0.4-1.5,1-2,1.9h-0.1v-2h-4.1v21.2h4.3v-7.4h0.1c0.5,0.8,1.2,1.3,2,1.7
				c0.8,0.4,1.7,0.6,2.7,0.6c1.2,0,2.2-0.2,3-0.7c0.9-0.4,1.6-1,2.2-1.8c0.6-0.7,1-1.6,1.3-2.6c0.3-1,0.4-2,0.4-3
				c0-1.1-0.1-2.2-0.4-3.2C230.4,48.3,229.9,47.4,229.4,46.6z M226.6,54.2c-0.1,0.6-0.3,1.1-0.6,1.6c-0.3,0.5-0.7,0.8-1.2,1.1
				c-0.5,0.3-1.1,0.4-1.8,0.4c-0.7,0-1.3-0.1-1.8-0.4c-0.5-0.3-0.9-0.7-1.2-1.1c-0.3-0.5-0.5-1-0.6-1.6c-0.1-0.6-0.2-1.2-0.2-1.9
				c0-0.6,0.1-1.3,0.2-1.9c0.1-0.6,0.3-1.1,0.6-1.6c0.3-0.5,0.7-0.8,1.2-1.1c0.5-0.3,1.1-0.4,1.8-0.4c0.7,0,1.3,0.1,1.7,0.4
				c0.5,0.3,0.9,0.7,1.2,1.2c0.3,0.5,0.5,1,0.7,1.6c0.1,0.6,0.2,1.2,0.2,1.9C226.8,53,226.7,53.6,226.6,54.2z M247.8,49.3
				c-0.3-1-0.7-1.9-1.3-2.7c-0.6-0.8-1.3-1.4-2.2-1.9c-0.9-0.5-2-0.7-3.2-0.7c-1,0-1.9,0.2-2.7,0.6c-0.8,0.4-1.5,1-2,1.9h-0.1v-2
				h-4.1v21.2h4.3v-7.4h0.1c0.5,0.8,1.2,1.3,2,1.7c0.8,0.4,1.7,0.6,2.7,0.6c1.2,0,2.2-0.2,3-0.7c0.9-0.4,1.6-1,2.2-1.8
				c0.6-0.7,1-1.6,1.3-2.6c0.3-1,0.4-2,0.4-3C248.3,51.4,248.1,50.3,247.8,49.3z M243.8,54.2c-0.1,0.6-0.3,1.1-0.6,1.6
				c-0.3,0.5-0.7,0.8-1.2,1.1c-0.5,0.3-1.1,0.4-1.8,0.4c-0.7,0-1.3-0.1-1.8-0.4c-0.5-0.3-0.9-0.7-1.2-1.1c-0.3-0.5-0.5-1-0.6-1.6
				c-0.1-0.6-0.2-1.2-0.2-1.9c0-0.6,0.1-1.3,0.2-1.9c0.1-0.6,0.3-1.1,0.6-1.6c0.3-0.5,0.7-0.8,1.2-1.1c0.5-0.3,1.1-0.4,1.8-0.4
				c0.7,0,1.3,0.1,1.7,0.4c0.5,0.3,0.9,0.7,1.2,1.2c0.3,0.5,0.5,1,0.7,1.6c0.1,0.6,0.2,1.2,0.2,1.9C244,53,243.9,53.6,243.8,54.2z"
				/>
		</g>
	</g>
	<g class="st4">
		<g>
			<path class="st13" d="M65.9,16.4C48.8,16.4,35,30.2,35,47.3c0,5.8,1.6,11.3,4.4,16l-5.6,16.6l17.1-5.5c4.4,2.4,9.5,3.8,14.9,3.8
				c17.1,0,30.9-13.8,30.9-30.9C96.8,30.2,82.9,16.4,65.9,16.4z M65.9,73.2c-5.3,0-10.2-1.6-14.3-4.3l-10,3.2l3.2-9.6
				c-3.1-4.3-4.9-9.5-4.9-15.2c0-14.3,11.7-26,26-26c14.3,0,26,11.7,26,26C91.9,61.6,80.2,73.2,65.9,73.2z"/>
		</g>
	</g>
	<path class="st9" d="M58.6,34.5c-0.5-1.2-0.9-1.2-1.7-1.3c-0.3,0-0.6,0-0.9,0c-1,0-2,0.3-2.7,0.9c-0.8,0.8-2.7,2.6-2.7,6.3
		c0,3.7,2.7,7.3,3.1,7.8c0.4,0.5,5.3,8.3,12.9,11.4c6,2.5,7.7,2.3,9.1,2c2-0.4,4.5-1.9,5.1-3.7c0.6-1.8,0.6-3.3,0.4-3.6
		c-0.2-0.3-0.7-0.5-1.5-0.9c-0.8-0.4-4.5-2.2-5.2-2.5c-0.7-0.3-1.3-0.2-1.9,0.6c-0.7,1-1.4,2.1-2,2.7c-0.5,0.5-1.2,0.6-1.8,0.3
		c-0.8-0.4-3.2-1.2-6.1-3.8c-2.3-2-3.8-4.5-4.2-5.2c-0.4-0.8,0-1.2,0.3-1.6c0.4-0.5,0.7-0.8,1.1-1.2c0.4-0.4,0.6-0.7,0.8-1.2
		c0.3-0.5,0.1-1-0.1-1.4C60.8,39.7,59.3,36,58.6,34.5z"/>
</g>
</svg>
